<svg width="28" height="28" viewBox="0 0 28 28" fill="none" xmlns="http://www.w3.org/2000/svg">
<path d="M10.7867 18.1065L14.8933 13.9998L10.7867 9.89317L12.6667 7.99984L18.6667 13.9998L12.6667 19.9998L10.7867 18.1065ZM0.666656 13.9998C0.666656 6.63984 6.63999 0.666504 14 0.666504C21.36 0.666505 27.3333 6.63984 27.3333 13.9998C27.3333 21.3598 21.36 27.3332 14 27.3332C6.63999 27.3332 0.666656 21.3598 0.666656 13.9998ZM24.6667 13.9998C24.6667 8.1065 19.8933 3.33317 14 3.33317C8.10666 3.33317 3.33332 8.1065 3.33332 13.9998C3.33332 19.8932 8.10666 24.6665 14 24.6665C19.8933 24.6665 24.6667 19.8932 24.6667 13.9998Z" fill="#0266FF"/>
</svg>
