<svg width="28" height="28" viewBox="0 0 28 28" fill="none" xmlns="http://www.w3.org/2000/svg">
<path d="M17.2133 9.8935L13.1067 14.0002L17.2133 18.1068L15.3333 20.0002L9.33333 14.0002L15.3333 8.00016L17.2133 9.8935ZM27.3333 14.0002C27.3333 21.3602 21.36 27.3335 14 27.3335C6.64 27.3335 0.666664 21.3602 0.666664 14.0002C0.666663 6.64016 6.63999 0.666829 14 0.666829C21.36 0.666828 27.3333 6.64016 27.3333 14.0002ZM3.33333 14.0002C3.33333 19.8935 8.10666 24.6668 14 24.6668C19.8933 24.6668 24.6667 19.8935 24.6667 14.0002C24.6667 8.10683 19.8933 3.3335 14 3.3335C8.10666 3.3335 3.33333 8.10683 3.33333 14.0002Z" fill="#0266FF"/>
</svg>
