<svg width="45" height="46" viewBox="0 0 45 46" fill="none" xmlns="http://www.w3.org/2000/svg">
<g clip-path="url(#clip0_2306_3564)">
<path d="M7.40479 38.8993C6.81152 38.8993 6.2447 38.6392 5.8564 38.1805C2.51896 34.2365 0.527344 29.1284 0.527344 23.5048C0.527344 11.0944 10.3584 1.03156 22.4942 1.0098C34.5187 0.988391 44.5307 11.1965 44.5393 23.4883C44.5413 26.5605 43.9408 29.4889 42.8518 32.1568C41.1836 36.2447 37.2656 38.8993 32.9329 38.8993H7.40479Z" fill="#0573CD"/>
<path d="M39.2401 8.26341V38.1456C35.204 42.9533 29.2171 45.9999 22.5333 45.9999C15.8495 45.9999 9.86266 42.9533 5.8269 38.1456V8.26341C5.8269 6.74203 7.033 5.50879 8.5213 5.50879H36.5454C38.0337 5.50879 39.2401 6.74203 39.2401 8.26341Z" fill="#FDF7BD"/>
<path d="M9.34425 41.5105C8.05507 40.5219 6.87473 39.3939 5.8269 38.1452V8.26341C5.8269 6.74203 7.033 5.50879 8.5213 5.50879H12.0386C10.5507 5.50879 9.34425 6.74203 9.34425 8.26341V41.5105Z" fill="#FCF498"/>
<path d="M11.4107 1.37714V8.72256C11.4107 9.48308 10.8075 10.0997 10.0631 10.0997C9.31916 10.0997 8.71594 9.48308 8.71594 8.72256V1.37714C8.71594 0.616623 9.31916 0 10.0631 0C10.8075 0 11.4107 0.616623 11.4107 1.37714ZM16.2982 0C15.5542 0 14.951 0.616623 14.951 1.37714V8.72256C14.951 9.48308 15.5542 10.0997 16.2982 10.0997C17.0422 10.0997 17.6454 9.48308 17.6454 8.72256V1.37714C17.6454 0.616623 17.0425 0 16.2982 0ZM22.5333 0C21.7893 0 21.1861 0.616623 21.1861 1.37714V8.72256C21.1861 9.48308 21.7893 10.0997 22.5333 10.0997C23.2773 10.0997 23.8805 9.48308 23.8805 8.72256V1.37714C23.8805 0.616623 23.2773 0 22.5333 0ZM28.7684 0C28.0244 0 27.4212 0.616623 27.4212 1.37714V8.72256C27.4212 9.48308 28.0244 10.0997 28.7684 10.0997C29.5124 10.0997 30.1156 9.48308 30.1156 8.72256V1.37714C30.1156 0.616623 29.5124 0 28.7684 0ZM35.0035 0C34.2592 0 33.6559 0.616623 33.6559 1.37714V8.72256C33.6559 9.48308 34.2592 10.0997 35.0035 10.0997C35.7475 10.0997 36.3507 9.48308 36.3507 8.72256V1.37714C36.3507 0.616623 35.7475 0 35.0035 0Z" fill="#FC6930"/>
<path d="M11.4107 1.37714V5.04985C11.4107 5.81036 10.8075 6.42699 10.0631 6.42699C9.31916 6.42699 8.71594 5.81036 8.71594 5.04985V1.37714C8.71594 0.616623 9.31916 0 10.0631 0C10.8075 0 11.4107 0.616623 11.4107 1.37714ZM16.2982 0C15.5542 0 14.951 0.616623 14.951 1.37714V5.04985C14.951 5.81036 15.5542 6.42699 16.2982 6.42699C17.0422 6.42699 17.6454 5.81036 17.6454 5.04985V1.37714C17.6454 0.616623 17.0425 0 16.2982 0ZM22.5333 0C21.7893 0 21.1861 0.616623 21.1861 1.37714V5.04985C21.1861 5.81036 21.7893 6.42699 22.5333 6.42699C23.2773 6.42699 23.8805 5.81036 23.8805 5.04985V1.37714C23.8805 0.616623 23.2773 0 22.5333 0ZM28.7684 0C28.0244 0 27.4212 0.616623 27.4212 1.37714V5.04985C27.4212 5.81036 28.0244 6.42699 28.7684 6.42699C29.5124 6.42699 30.1156 5.81036 30.1156 5.04985V1.37714C30.1156 0.616623 29.5124 0 28.7684 0ZM35.0035 0C34.2592 0 33.6559 0.616623 33.6559 1.37714V5.04985C33.6559 5.81036 34.2592 6.42699 35.0035 6.42699C35.7475 6.42699 36.3507 5.81036 36.3507 5.04985V1.37714C36.3507 0.616623 35.7475 0 35.0035 0Z" fill="#FD7D43"/>
<path d="M40.0016 37.1855C38.527 39.1505 36.7434 40.8593 34.723 42.2357H26.0507V37.1855H40.0016Z" fill="#DF3D9B"/>
<path d="M38.8806 38.5631H26.0507V32.1357H42.8608C41.8943 34.5113 40.5403 36.6813 38.8806 38.5631Z" fill="#FD73C4"/>
<path d="M11.4742 40.3993V33.9723C11.4742 32.958 12.2786 32.1357 13.2705 32.1357H27.642V42.2358H13.2705C12.2786 42.2358 11.4742 41.4135 11.4742 40.3993Z" fill="#FD92D2"/>
<path d="M11.4742 36.7265V33.9723C11.4742 32.958 12.2786 32.1357 13.2705 32.1357H27.642V38.5631H13.2705C12.2786 38.5631 11.4742 37.7408 11.4742 36.7265Z" fill="#FDADE0"/>
<path d="M32.582 35.8086H16.4142C15.6702 35.8086 15.067 35.192 15.067 34.4314V32.5949C15.067 31.8344 15.6702 31.2178 16.4142 31.2178H32.582C33.326 31.2178 33.9292 31.8344 33.9292 32.5949V34.4314C33.9292 35.192 33.326 35.8086 32.582 35.8086Z" fill="#E659A9"/>
<path d="M25.5872 25.7085V27.5447C25.5872 27.7984 25.386 28.0038 25.1381 28.0038H14.3598C14.1116 28.0038 13.9104 27.7984 13.9104 27.5447V25.7085C13.9104 25.4548 14.1116 25.2495 14.3598 25.2495H25.1381C25.386 25.2495 25.5872 25.4548 25.5872 25.7085ZM30.5272 19.7402H14.3598C14.1116 19.7402 13.9104 19.9459 13.9104 20.1996V22.0358C13.9104 22.2892 14.1116 22.4949 14.3598 22.4949H30.5272C30.7754 22.4949 30.9763 22.2892 30.9763 22.0358V20.1996C30.9763 19.9459 30.7754 19.7402 30.5272 19.7402Z" fill="#FDC273"/>
<path d="M30.5272 16.9861H14.3598C14.1116 16.9861 13.9104 16.7804 13.9104 16.527V14.6905C13.9104 14.4371 14.1116 14.2314 14.3598 14.2314H30.5272C30.7754 14.2314 30.9763 14.4371 30.9763 14.6905V16.527C30.9763 16.7804 30.7754 16.9861 30.5272 16.9861ZM22.8928 22.495V19.7403H14.3598C14.1116 19.7403 13.9104 19.946 13.9104 20.1997V22.0359C13.9104 22.2893 14.1116 22.495 14.3598 22.495H22.8928Z" fill="#FD92D2"/>
</g>
<defs>
<clipPath id="clip0_2306_3564">
<rect width="45" height="46" fill="white"/>
</clipPath>
</defs>
</svg>
