<svg width="22" height="21" viewBox="0 0 22 21" fill="none" xmlns="http://www.w3.org/2000/svg">
<path fill-rule="evenodd" clip-rule="evenodd" d="M20.6111 10.7311C20.6111 10.0103 20.5464 9.31721 20.4263 8.65186H10.8525V12.5839H16.3232C16.0876 13.8546 15.3714 14.9311 14.2948 15.6519V18.2025H17.58C19.5022 16.4328 20.6111 13.8268 20.6111 10.7311Z" fill="#4285F4"/>
<path fill-rule="evenodd" clip-rule="evenodd" d="M10.8528 20.6652C13.5973 20.6652 15.8984 19.7549 17.5802 18.2024L14.295 15.6519C13.3848 16.2618 12.2204 16.6222 10.8528 16.6222C8.20519 16.6222 5.96423 14.8341 5.16488 12.4314H1.7688V15.0651C3.44143 18.3873 6.8791 20.6652 10.8528 20.6652Z" fill="#34A853"/>
<path fill-rule="evenodd" clip-rule="evenodd" d="M5.16479 12.4315C4.96148 11.8216 4.84597 11.1701 4.84597 10.5001C4.84597 9.83016 4.96148 9.17867 5.16479 8.56876V5.93506H1.7687C1.08024 7.30735 0.6875 8.85985 0.6875 10.5001C0.6875 12.1404 1.08024 13.6929 1.7687 15.0652L5.16479 12.4315Z" fill="#FBBC05"/>
<path fill-rule="evenodd" clip-rule="evenodd" d="M10.8528 4.37792C12.3452 4.37792 13.6851 4.8908 14.7386 5.89807L17.6542 2.98252C15.8937 1.34224 13.5927 0.334961 10.8528 0.334961C6.8791 0.334961 3.44143 2.61288 1.7688 5.93504L5.16488 8.56874C5.96423 6.16606 8.20519 4.37792 10.8528 4.37792Z" fill="#EA4335"/>
</svg>
