<svg width="51" height="50" viewBox="0 0 51 50" fill="none" xmlns="http://www.w3.org/2000/svg">
<path d="M42.6875 0H8.3125C3.99778 0 0.5 3.49778 0.5 7.8125V42.1875C0.5 46.5022 3.99778 50 8.3125 50H42.6875C47.0022 50 50.5 46.5022 50.5 42.1875V7.8125C50.5 3.49778 47.0022 0 42.6875 0Z" fill="#F00073"/>
<path d="M25.5 14.375C28.9375 14.375 29.4062 14.375 30.8125 14.375C32.0625 14.375 32.6875 14.6875 33.1562 14.8438C33.7812 15.1563 34.25 15.3125 34.7188 15.7813C35.1875 16.25 35.5 16.7188 35.6562 17.3438C35.8125 17.8125 35.9687 18.4375 36.125 19.6875C36.125 21.0938 36.125 21.4062 36.125 25C36.125 28.5938 36.125 28.9062 36.125 30.3125C36.125 31.5625 35.8125 32.1875 35.6562 32.6562C35.3438 33.2812 35.1875 33.75 34.7188 34.2188C34.25 34.6875 33.7812 35 33.1562 35.1562C32.6875 35.3125 32.0625 35.4687 30.8125 35.625C29.4062 35.625 29.0938 35.625 25.5 35.625C21.9062 35.625 21.5938 35.625 20.1875 35.625C18.9375 35.625 18.3125 35.3125 17.8438 35.1562C17.2188 34.8438 16.75 34.6875 16.2813 34.2188C15.8125 33.75 15.5 33.2812 15.3438 32.6562C15.1875 32.1875 15.0312 31.5625 14.875 30.3125C14.875 28.9062 14.875 28.5938 14.875 25C14.875 21.4062 14.875 21.0938 14.875 19.6875C14.875 18.4375 15.1875 17.8125 15.3438 17.3438C15.6563 16.7188 15.8125 16.25 16.2813 15.7813C16.75 15.3125 17.2188 15 17.8438 14.8438C18.3125 14.6875 18.9375 14.5312 20.1875 14.375C21.5938 14.375 22.0625 14.375 25.5 14.375ZM25.5 12.0312C21.9062 12.0312 21.5938 12.0312 20.1875 12.0312C18.7813 12.0312 17.8438 12.3438 17.0625 12.6563C16.2813 12.9688 15.5 13.4375 14.7188 14.2188C13.9375 15 13.625 15.625 13.1563 16.5625C12.8438 17.3438 12.6875 18.2813 12.5312 19.6875C12.5312 21.0938 12.5312 21.5625 12.5312 25C12.5312 28.5938 12.5312 28.9062 12.5312 30.3125C12.5312 31.7188 12.8438 32.6562 13.1563 33.4375C13.4688 34.2188 13.9375 35 14.7188 35.7812C15.5 36.5625 16.125 36.875 17.0625 37.3438C17.8438 37.6563 18.7813 37.8125 20.1875 37.9687C21.5938 37.9687 22.0625 37.9687 25.5 37.9687C28.9375 37.9687 29.4062 37.9687 30.8125 37.9687C32.2188 37.9687 33.1562 37.6563 33.9375 37.3438C34.7188 37.0312 35.5 36.5625 36.2812 35.7812C37.0625 35 37.375 34.375 37.8438 33.4375C38.1563 32.6562 38.3125 31.7188 38.4687 30.3125C38.4687 28.9062 38.4687 28.4375 38.4687 25C38.4687 21.5625 38.4687 21.0938 38.4687 19.6875C38.4687 18.2813 38.1563 17.3438 37.8438 16.5625C37.5312 15.7813 37.0625 15 36.2812 14.2188C35.5 13.4375 34.875 13.125 33.9375 12.6563C33.1562 12.3438 32.2188 12.1875 30.8125 12.0312C29.4062 12.0313 29.0938 12.0312 25.5 12.0312Z" fill="white"/>
<path d="M25.5 18.2812C21.75 18.2812 18.7812 21.25 18.7812 25C18.7812 28.75 21.75 31.7188 25.5 31.7188C29.25 31.7188 32.2188 28.75 32.2188 25C32.2188 21.25 29.25 18.2812 25.5 18.2812ZM25.5 29.375C23.1562 29.375 21.125 27.5 21.125 25C21.125 22.6562 23 20.625 25.5 20.625C27.8438 20.625 29.875 22.5 29.875 25C29.875 27.3438 27.8438 29.375 25.5 29.375Z" fill="white"/>
<path d="M32.375 19.6875C33.2379 19.6875 33.9375 18.9879 33.9375 18.125C33.9375 17.2621 33.2379 16.5625 32.375 16.5625C31.5121 16.5625 30.8125 17.2621 30.8125 18.125C30.8125 18.9879 31.5121 19.6875 32.375 19.6875Z" fill="white"/>
</svg>
