<svg width="608" height="1115" viewBox="0 0 608 1115" fill="none" xmlns="http://www.w3.org/2000/svg">
<path d="M122.327 364.822C272.063 361.672 433.053 399.27 481.981 615.182C530.909 831.094 548.228 1028.69 680.416 1099.8" stroke="#EAEAEA"/>
<path d="M123.072 321.228C272.809 318.078 433.798 355.676 482.727 571.588C531.655 787.5 548.974 985.099 681.162 1056.21" stroke="#EAEAEA"/>
<path d="M123.818 277.634C273.555 274.484 434.544 312.082 483.472 527.994C532.4 743.906 549.719 941.505 681.908 1012.61" stroke="#EAEAEA"/>
<path d="M124.563 234.04C274.3 230.89 435.29 268.488 484.218 484.4C533.146 700.312 550.465 897.911 682.653 969.018" stroke="#EAEAEA"/>
<path d="M125.31 190.446C275.046 187.296 436.036 224.894 484.964 440.806C533.892 656.718 551.211 854.317 683.399 925.424" stroke="#EAEAEA"/>
<path d="M126.055 146.852C275.792 143.701 436.781 181.299 485.71 397.212C534.638 613.124 551.957 810.723 684.145 881.83" stroke="#EAEAEA"/>
<path d="M126.801 103.258C276.538 100.107 437.527 137.705 486.455 353.618C535.383 569.53 552.702 767.129 684.891 838.236" stroke="#EAEAEA"/>
</svg>
