<svg width="113" height="146" viewBox="0 0 113 146" fill="none" xmlns="http://www.w3.org/2000/svg">
<path d="M30.4655 119.344C28.1445 117.268 25.2046 118.212 21.9552 122.048C17.4679 127.268 17.3132 129.28 21.3363 129.406C24.9467 129.532 32.5286 121.167 30.4655 119.344Z" fill="#ACCDFF"/>
<path d="M30.2077 108.715C30.2077 107.08 25.411 105.382 23.5026 106.388C20.3048 108.023 2.30419 125.255 1.01474 125.884C-2.13151 127.393 2.71681 130.475 6.32726 129.28C9.62824 128.148 30.2077 110.476 30.2077 108.715Z" fill="#ACCDFF"/>
<path d="M15.3535 44.5047C19.2218 44.5676 20.2532 42.9325 17.8291 40.4797C13.1355 35.6372 9.47358 34.0021 6.58521 35.5115C3.18107 37.2095 10.1441 44.3789 15.3535 44.5047Z" fill="#ACCDFF"/>
<path d="M75.6477 51.1711C78.4329 51.2339 83.6423 47.2719 83.3328 45.3223C82.7654 41.8004 76.9887 41.8004 73.894 45.3223C70.5415 49.0957 71.1088 51.1082 75.6477 51.1711Z" fill="#ACCDFF"/>
<path d="M26.8035 42.6807C31.8581 43.8127 31.497 40.7942 25.2562 29.9771C13.7543 10.041 9.88593 5.00979 7.1523 6.39336C3.49027 8.15428 21.5426 41.4232 26.8035 42.6807Z" fill="#ACCDFF"/>
<path d="M105.253 33.1844C102.726 34.5051 83.9001 49.7245 79.2065 54.1897C78.175 55.1959 81.7338 56.9568 84.3643 56.7053C86.9948 56.4537 87.9748 55.8248 98.5482 47.3347C104.789 42.3035 110.566 37.7123 111.34 37.1463C115.053 34.3163 109.689 30.8574 105.253 33.1844Z" fill="#ACCDFF"/>
<path d="M84.7252 114.25C81.94 111.105 78.0717 109.344 76.9886 110.728C76.318 111.545 77.7622 113.558 80.3927 115.382C84.6221 118.337 87.6652 117.52 84.7252 114.25Z" fill="#ACCDFF"/>
<path d="M77.5562 80.2261C80.3414 78.4652 80.2898 77.9621 77.1436 74.1887C67.4985 62.6798 59.4524 36.1403 57.6472 10.1038C56.9766 0.73324 49.8073 -8.13424 45.9906 14.1917C41.1422 42.3664 29.6921 71.0442 22.1102 74C17.0039 76.0125 17.5714 80.2261 22.9355 80.2261C30.8782 80.2261 35.7266 88.9678 38.8212 109.093C40.8328 122.174 44.2369 142.424 44.5464 143.493C45.32 146.009 52.3862 150.097 54.243 133.368C56.8219 109.721 66.9312 86.8295 77.5562 80.2261ZM68.6332 77.3332C60.1229 84.6913 51.7157 98.9673 49.5494 109.847C49.0337 112.363 48.4663 111.986 48.0537 108.904C46.0421 93.1814 41.7612 83.7479 34.5403 78.7796L31.7551 76.83C39.1823 67.2079 42.5348 63.7489 51.1483 34.2538C51.5094 32.996 51.561 33.1846 53.4178 40.7943C56.8735 55.2588 61.206 65.5728 66.7764 72.6793C69.5616 76.3269 69.6132 76.5156 68.6332 77.3332Z" fill="#ACCDFF"/>
<path d="M67.7046 115.382C66.2089 116.451 66.6215 117.457 71.0056 124.249C78.6907 136.135 82.7654 139.657 85.2927 136.576C86.479 135.129 85.86 133.808 80.238 125.381C73.275 114.941 70.954 113.118 67.7046 115.382Z" fill="#ACCDFF"/>
</svg>
