<svg width="550" height="653" viewBox="0 0 550 653" fill="none" xmlns="http://www.w3.org/2000/svg">
<path d="M36 54C36 37.4314 49.4315 24 66 24H388C470.843 24 538 91.1573 538 174V496C538 512.569 524.569 526 508 526H66C49.4314 526 36 512.569 36 496V54Z" fill="#ACCDFF"/>
<path d="M12 95C12 78.4314 25.4315 65 42 65H364C446.843 65 514 132.157 514 215V537C514 553.569 500.569 567 484 567H42C25.4314 567 12 553.569 12 537V95Z" fill="#E0ECFF"/>
<path d="M445.382 227.517C445.382 227.218 445.264 226.932 445.053 226.721C444.842 226.51 444.556 226.392 444.257 226.392C443.959 226.392 443.673 226.51 443.462 226.721C443.251 226.932 443.133 227.218 443.133 227.517C443.133 227.761 438.487 477 438.507 477.249C425.536 478.276 412.538 479.044 399.529 479.667C383.947 480.42 318.844 482.254 301.858 482.513C284.403 482.787 121.84 482.968 108.246 482.838V227.517H35.3019C35.3019 227.517 35.2555 478.828 35.3019 481.894C35.0056 481.894 34.7214 482.012 34.5118 482.222C34.3023 482.431 34.1846 482.715 34.1846 483.012C34.1846 483.308 34.3023 483.592 34.5118 483.802C34.7214 484.011 35.0056 484.129 35.3019 484.129C37.8472 484.183 372.67 483.051 388.67 482.361C411.064 481.405 425.556 480.481 439.632 479.374C439.926 479.367 440.206 479.247 440.414 479.039C440.622 478.831 440.742 478.55 440.749 478.256C445.673 215.201 445.36 227.761 445.382 227.517Z" fill="#69A5FF"/>
<path d="M145.248 405.129C147.397 405.151 149.847 405.077 149.6 405.077C149.896 405.073 150.178 404.955 150.387 404.746C150.596 404.537 150.716 404.255 150.72 403.96V395.823C150.713 395.528 150.592 395.248 150.384 395.04C150.175 394.832 149.895 394.712 149.6 394.705L70.2039 392.796C70.0084 392.794 69.816 392.845 69.6469 392.943C69.4778 393.041 69.3383 393.183 69.243 393.353C67.397 396.708 65.551 400.048 63.7051 403.4C63.6168 403.559 63.5684 403.736 63.5641 403.918C63.5598 404.099 63.5997 404.279 63.6803 404.442C63.7609 404.604 63.8798 404.745 64.0268 404.851C64.1738 404.958 64.3445 405.027 64.5241 405.053C64.7686 405.133 79.644 405.092 78.6782 405.092C70.7956 420.212 70.2479 455.249 35.3724 605.215C35.035 606.618 37.2062 607.217 37.5313 605.812C40.6365 592.699 46.7197 565.941 46.771 565.714C66.6329 569.704 86.6044 573.129 106.661 575.983C104.188 587.29 101.675 598.588 99.1209 609.878C98.7981 611.281 100.955 611.88 101.28 610.477C104.346 597.166 115.705 543.75 118.292 530.337C120.775 517.522 123.145 504.681 125.402 491.814C128.515 502.858 140.434 503.858 146.989 494.701C150.72 489.498 152.823 478.831 153.943 472.452L164.977 540.139C165.221 541.555 167.368 540.958 167.133 539.542C163.055 514.29 150.346 436.403 145.248 405.129ZM66.6048 402.791C68.0205 400.204 69.4508 397.63 70.8665 395.045C73.2846 395.097 147.781 396.943 148.483 396.955V402.823C37.0081 402.838 74.5071 402.647 66.6048 402.791ZM80.9007 405.61C80.9891 405.442 81.0336 405.255 81.0303 405.065H136.708C135.344 415.021 133.91 424.964 132.407 434.894C117.123 433.931 101.813 433.62 86.5145 432.97C82.2773 432.786 73.8005 432.334 73.8005 432.334C75.8469 421.317 76.8249 413.19 80.9007 405.61ZM73.8102 434.593C93.4045 435.786 112.522 435.933 132.087 437.129C131.737 439.481 127.304 467.542 125.317 479.197C124.938 478.992 77.2553 479.618 64.842 479.733C74.5169 430.312 72.9741 434.593 73.8176 434.593H73.8102ZM107.121 573.763C85.9815 570.755 65.353 567.183 47.2576 563.508C49.9739 551.317 55.6806 524.713 55.9128 523.621C64.8884 523.484 68.7344 524.398 116.27 528.885C113.407 543.881 110.359 558.841 107.128 573.763H107.121ZM116.7 526.677C68.3017 521.985 63.9569 521.31 56.3676 521.359C65.3579 478.481 64.0351 481.98 64.6806 481.98C127.918 481.295 124.715 481.339 124.96 481.278C122.625 494.669 119.312 513.376 116.708 526.677H116.7ZM146.793 490.596C140.776 502.919 125.476 501.743 127.053 482.603C127.053 482.359 138.106 411.742 138.969 405.077C138.969 405.077 141.701 405.092 142.987 405.116C145.833 422.571 152.371 462.706 152.798 465.305C151.977 471.767 149.652 484.738 146.793 490.596Z" fill="black"/>
<path d="M128.233 289.497C238.182 289.497 228.234 289.668 229.212 289.172C229.317 289.072 229.4 288.951 229.456 288.816C229.512 288.682 229.54 288.538 229.537 288.392C229.537 241.937 229.886 241.778 228.757 241.553C228.397 241.433 127.937 241.475 128.226 241.475C127.931 241.479 127.649 241.599 127.441 241.807C127.232 242.016 127.113 242.297 127.108 242.592V288.38C127.11 288.677 127.23 288.961 127.44 289.17C127.651 289.38 127.936 289.497 128.233 289.497ZM132.588 287.263C146.695 282.155 162.099 275.003 176.984 267.859C186.211 271.732 217.639 284.612 224.084 287.263H132.588ZM227.295 286.157C211.418 279.64 195.549 273.103 179.688 266.546C190.319 261.49 222.018 246.531 227.295 244.255V286.157ZM223.084 243.707C211.51 248.8 200.681 254.135 176.96 265.424C161.03 258.712 145.84 251.959 130.456 243.707H223.084ZM129.35 245.663C143.979 253.502 158.979 260.282 174.268 266.72C159.639 273.936 144.647 280.391 129.35 286.057V245.663ZM229.544 308.798C229.539 308.637 229.501 308.478 229.431 308.333C229.362 308.187 229.262 308.058 229.14 307.953C229.018 307.848 228.875 307.769 228.72 307.722C228.566 307.675 228.404 307.661 228.243 307.681H128.243C127.948 307.686 127.667 307.805 127.458 308.014C127.25 308.222 127.131 308.503 127.126 308.798V380.045C127.13 380.341 127.249 380.622 127.458 380.831C127.666 381.04 127.948 381.16 128.243 381.165C235.776 381.165 228.657 381.317 229.15 380.891C229.173 380.869 229.2 380.852 229.229 380.84C229.334 380.74 229.417 380.618 229.473 380.484C229.529 380.35 229.557 380.205 229.554 380.06C229.676 311.04 229.544 308.554 229.544 308.798ZM129.404 309.915C228.593 309.915 224.476 309.903 224.723 309.93C213.737 317.419 195.495 331.184 176.92 344.852C137.465 319.013 131.155 310.788 129.377 310.346C129.4 310.203 129.409 310.059 129.404 309.915ZM129.353 313.062C143.926 325 159.17 336.095 175.008 346.295C160.482 357.515 145.235 367.769 129.365 376.992C129.348 375.214 129.353 312.727 129.353 313.062ZM130.575 378.877C146.857 370.023 163.475 357.5 177.001 347.581C185.967 353.456 218.615 374.27 225.913 378.943C222.747 378.916 131.184 378.916 130.573 378.877H130.575ZM227.246 377.121C211.121 366.821 195.009 356.502 178.908 346.165C183.197 342.986 222.006 314.466 227.319 310.903C227.29 313.145 227.243 376.872 227.243 377.121H227.246Z" fill="#69A5FF"/>
<path d="M444.252 221.68C444.254 219.589 443.844 217.517 443.044 215.584C442.245 213.651 441.073 211.895 439.594 210.415C438.116 208.935 436.36 207.761 434.428 206.96C432.496 206.159 430.425 205.747 428.333 205.746H51.2285C47.0025 205.746 42.9496 207.425 39.9614 210.413C36.9732 213.402 35.2944 217.454 35.2944 221.68V227.524H444.243L444.252 221.68ZM370.211 221.409C369.267 221.409 368.345 221.129 367.56 220.605C366.776 220.081 366.165 219.336 365.803 218.464C365.442 217.593 365.348 216.634 365.532 215.708C365.716 214.783 366.17 213.933 366.837 213.266C367.505 212.599 368.355 212.144 369.28 211.96C370.205 211.776 371.164 211.871 372.036 212.232C372.908 212.593 373.653 213.204 374.177 213.989C374.701 214.773 374.981 215.695 374.981 216.639C374.982 217.266 374.859 217.887 374.619 218.466C374.38 219.045 374.028 219.572 373.585 220.015C373.141 220.458 372.615 220.809 372.035 221.049C371.456 221.288 370.835 221.41 370.208 221.409H370.211ZM388.147 221.409C387.204 221.409 386.281 221.13 385.496 220.606C384.711 220.082 384.1 219.338 383.738 218.466C383.377 217.594 383.282 216.635 383.466 215.71C383.65 214.784 384.104 213.934 384.771 213.267C385.438 212.599 386.288 212.145 387.213 211.96C388.138 211.776 389.098 211.871 389.97 212.231C390.841 212.592 391.586 213.204 392.111 213.988C392.635 214.773 392.915 215.695 392.915 216.639C392.916 217.266 392.793 217.886 392.554 218.465C392.314 219.045 391.963 219.571 391.52 220.014C391.077 220.457 390.55 220.808 389.971 221.048C389.392 221.287 388.771 221.41 388.145 221.409H388.147ZM406.849 221.409C405.905 221.409 404.983 221.129 404.199 220.605C403.414 220.081 402.803 219.336 402.442 218.464C402.081 217.593 401.986 216.634 402.17 215.708C402.354 214.783 402.809 213.933 403.476 213.266C404.143 212.599 404.993 212.144 405.918 211.96C406.844 211.776 407.803 211.871 408.674 212.232C409.546 212.593 410.291 213.204 410.815 213.989C411.339 214.773 411.619 215.695 411.619 216.639C411.62 217.266 411.497 217.887 411.257 218.466C411.017 219.046 410.665 219.572 410.222 220.015C409.778 220.458 409.251 220.809 408.672 221.049C408.092 221.288 407.471 221.41 406.844 221.409H406.849Z" fill="#2C80FF"/>
<path d="M95.6514 264.245C95.6418 260.488 94.7305 256.789 92.994 253.457C91.2576 250.125 88.7467 247.259 85.6726 245.099C82.5984 242.94 79.0506 241.549 75.3276 241.046C71.6045 240.542 67.8149 240.939 64.2772 242.204C48.6023 247.619 41.9226 268.402 54.5192 280.439C68.9692 294.214 95.5952 285.319 95.6514 264.245Z" fill="#E0ECFF"/>
<path d="M52.8544 299.209C53.0451 298.311 55.7249 299.698 56.2065 299.795C58.5097 300.24 58.9547 298.615 60.275 298.639C61.1337 298.761 61.9698 299.008 62.7567 299.372C72.0477 302.37 81.7983 299.492 91.1798 301.309C92.5857 301.58 93.1945 299.424 91.7788 299.15C82.7201 297.394 73.3337 299.705 65.1283 297.707C63.0941 297.218 60.9376 295.959 59.0843 296.563C58.4461 296.771 57.9791 297.253 57.3728 297.512C56.6393 297.825 55.8153 297.319 55.1381 297.045C52.7566 296.103 51.0109 297.179 50.7053 298.605C50.3996 300.03 52.5635 300.634 52.8544 299.209ZM78.6272 309.5C71.0174 308.75 63.3638 308.546 55.7249 308.888C54.2823 308.954 54.2823 311.189 55.7249 311.138C63.3639 310.808 71.0166 311.012 78.6272 311.749C80.055 311.879 80.0428 309.639 78.6272 309.5ZM86.813 310.096C86.5675 310.252 86.392 310.497 86.3234 310.779C86.2547 311.061 86.2984 311.36 86.4451 311.61C86.5917 311.861 86.8301 312.046 87.1098 312.124C87.3896 312.203 87.689 312.17 87.9451 312.033C88.4208 311.816 88.9472 311.736 89.4659 311.8C89.7441 311.844 90.0149 311.926 90.2703 312.045C90.3976 312.126 90.5399 312.18 90.6887 312.204C90.8374 312.229 90.9896 312.223 91.1361 312.188C91.2826 312.152 91.4205 312.087 91.5414 311.997C91.6623 311.907 91.7639 311.794 91.84 311.663C91.9161 311.533 91.9652 311.389 91.9843 311.24C92.0034 311.09 91.9923 310.938 91.9514 310.793C91.9106 310.648 91.8409 310.512 91.7465 310.395C91.6522 310.277 91.5351 310.18 91.4023 310.108C90.6967 309.731 89.9093 309.533 89.1092 309.531C88.309 309.528 87.5206 309.723 86.813 310.096ZM59.4559 320.275C57.3934 319.571 55.2049 319.313 53.0354 319.519C52.7477 319.533 52.4763 319.656 52.2776 319.865C52.0788 320.073 51.9679 320.35 51.9679 320.638C51.9679 320.926 52.0788 321.203 52.2776 321.411C52.4763 321.619 52.7477 321.743 53.0354 321.756C55.0019 321.547 56.9905 321.777 58.8569 322.431C59.1432 322.509 59.4487 322.471 59.707 322.325C59.9653 322.179 60.1554 321.937 60.2359 321.651C60.3082 321.366 60.2674 321.063 60.1221 320.807C59.9768 320.55 59.7382 320.36 59.4559 320.275ZM96.4048 323.121C95.4268 321.549 93.3118 321.717 91.6884 321.6C85.4781 321.111 78.9035 320.932 72.1284 321.055C71.8395 321.068 71.5669 321.192 71.3672 321.402C71.1675 321.611 71.0561 321.889 71.0561 322.178C71.0561 322.467 71.1675 322.746 71.3672 322.955C71.5669 323.164 71.8395 323.288 72.1284 323.302C78.8399 323.178 85.5535 323.378 92.2458 323.901C92.703 323.94 94.2018 323.808 94.483 324.263C95.2238 325.473 97.1725 324.355 96.4048 323.121Z" fill="black"/>
<path d="M468.893 281.7C455.362 282.81 456.064 297.791 456.117 310.123C464.4 308.468 472.834 307.697 481.279 307.822C481.418 307.825 481.554 307.856 481.68 307.915C481.748 303.937 481.66 280.654 468.893 281.7ZM219.816 550.388C218.862 553.464 214.168 553.662 209.679 554.261C195.818 556.076 183.028 554.261 169.155 551.545C167.165 551.368 165.226 550.822 163.436 549.934C162.759 549.537 162.212 548.951 161.862 548.248C161.512 547.545 161.374 546.755 161.466 545.975C160.758 546.927 160.206 547.985 159.83 549.11C158.879 551.31 157.329 556.494 159.544 557.491C161.957 558.601 163.661 553.635 166.082 554.657C167.304 555.178 167.405 556.912 167.563 558.325C167.784 559.508 168.541 560.797 169.669 560.562C170.796 560.327 171.111 558.819 172.138 558.34C172.421 558.258 172.718 558.234 173.011 558.27C173.303 558.305 173.586 558.399 173.841 558.546C174.097 558.692 174.32 558.889 174.499 559.123C174.677 559.358 174.806 559.626 174.879 559.912C175.12 561.083 175.107 562.293 174.84 563.459C174.351 567.565 175.329 574.132 179.312 574.156C181.167 574.156 183.158 572.445 183.119 568.684C183.07 567.007 182.649 566.931 181.793 565.733C179.07 561.895 183.955 558.904 185.615 562.653C186.502 564.658 185.603 569.391 185.126 571.518C184.637 573.89 183.414 576.005 185.165 577.406C185.962 577.834 186.857 578.048 187.762 578.025C188.666 578.003 189.55 577.744 190.324 577.276C193.679 575.508 191.495 572.738 190.234 570.43C189.802 569.645 189.533 568.781 189.441 567.89C189.35 566.999 189.438 566.098 189.701 565.242C189.974 564.398 190.586 563.513 191.468 563.489C191.863 563.506 192.249 563.613 192.598 563.799C198.014 566.23 196.869 567.956 196.967 571.027C197.018 572.249 197.615 573.638 198.825 573.834C200.319 574.078 201.358 572.261 201.319 570.755C201.248 568.029 199.627 566.45 202.503 563.149C203.596 561.701 205.099 560.614 206.818 560.032C207.554 559.831 208.337 559.899 209.027 560.223C209.717 560.547 210.27 561.105 210.586 561.799C211.104 563.386 209.74 565.909 211.353 567.024C212.676 567.924 215.265 566.621 215.51 564.269C215.591 563.535 215.29 562.335 215.432 561.42C215.574 560.506 216.522 559.523 217.388 559.929C218.05 560.225 218.207 561.083 218.349 561.799C218.49 562.516 218.921 563.357 219.649 563.332C219.718 563.325 219.785 563.31 219.85 563.286C220.552 563.093 220.786 562.078 220.798 561.271C220.867 554.088 221.151 551.873 219.816 550.388Z" fill="#69A5FF"/>
<path d="M166.38 548.699C175.837 550.818 185.453 552.156 195.129 552.701C200.987 552.926 206.854 552.547 212.635 551.569C215.031 551.161 217.036 550.936 217.574 549.972C218.224 548.789 216.183 548.139 215.39 547.892C199.846 543.35 183.532 542.063 167.468 544.112C166.24 544.16 165.066 544.628 164.141 545.437C163.234 546.447 163.393 547.963 166.38 548.699Z" fill="#69A5FF"/>
<path d="M415.345 536.904C407.865 518.1 395.953 502.293 391.472 482.2C388.961 470.953 388.027 461.068 381.296 451.686C363.133 461.448 342.033 464.247 321.953 459.559C321.801 461.813 321.766 464.074 321.848 466.332C321.97 502.198 325.823 519.784 328.242 548.589C329.413 561.547 328.579 574.53 329.841 587.464C329.896 590.105 330.855 592.646 332.557 594.665C341.447 603.543 348.347 580.496 349.868 575.261C356.714 551.704 352.132 528.486 354.222 507.449C354.106 507.666 353.921 507.838 353.697 507.939C353.473 508.04 353.222 508.065 352.983 508.01C352.743 507.954 352.529 507.821 352.372 507.631C352.216 507.442 352.126 507.206 352.117 506.96C352.547 495.019 360.43 485.295 363.608 474.119C363.688 473.833 363.878 473.59 364.136 473.444C364.395 473.297 364.701 473.26 364.987 473.339C365.274 473.419 365.517 473.609 365.663 473.867C365.809 474.126 365.847 474.432 365.767 474.718C364.113 479.752 362.056 484.645 359.618 489.349C359.792 489.189 359.974 489.038 360.163 488.897C365.738 498.437 371.158 508.071 376.423 517.799C384.039 531.824 392.56 545.498 398.946 560.144C401.051 564.98 402.325 570.946 407.259 573.79C411.677 576.352 418.345 575.807 420.112 570.308C423.403 559.973 419.227 546.667 415.345 536.904Z" fill="#6DD3A8"/>
<path d="M481.694 322.464C481.45 322.549 482.183 322.427 456.858 324.894C456.731 324.909 456.602 324.899 456.479 324.863C456.356 324.827 456.241 324.767 456.142 324.686L459.521 443.092C460.039 441.479 460.793 439.951 461.758 438.557C462.381 437.467 463.029 435.515 464.526 435.452C465.944 435.374 467.059 437.234 467.88 438.141C468.67 439.012 469.452 439.882 470.244 440.753C471.362 438.762 472.413 436.748 473.352 434.669C473.453 434.503 473.594 434.365 473.764 434.27C473.933 434.174 474.124 434.124 474.319 434.124C474.514 434.124 474.705 434.174 474.874 434.27C475.044 434.365 475.185 434.503 475.286 434.669C476.496 436.486 477.875 438.183 479.406 439.738C480.33 438.88 481.24 438.026 482.161 437.151C482.374 436.945 482.659 436.829 482.955 436.829C483.251 436.829 483.536 436.945 483.748 437.151C484.704 438.068 485.591 439.054 486.401 440.102L481.694 322.464ZM465.655 327.508C465.655 327.209 465.774 326.923 465.985 326.712C466.195 326.501 466.482 326.383 466.78 326.383C467.078 326.383 467.364 326.501 467.575 326.712C467.786 326.923 467.905 327.209 467.905 327.508C467.983 330.945 467.826 334.385 467.435 337.801C467.435 338.098 467.317 338.383 467.107 338.593C466.897 338.803 466.612 338.921 466.315 338.921C466.018 338.921 465.733 338.803 465.523 338.593C465.313 338.383 465.195 338.098 465.195 337.801C465.572 334.383 465.726 330.945 465.655 327.508ZM466.203 424.068C466.112 418.229 465.408 365.307 465.125 344.684C465.138 344.395 465.262 344.122 465.472 343.922C465.681 343.723 465.959 343.611 466.248 343.611C466.537 343.611 466.815 343.723 467.025 343.922C467.234 344.122 467.358 344.395 467.372 344.684C467.45 350.517 468.166 403.442 468.45 424.068C468.436 424.357 468.312 424.629 468.103 424.829C467.894 425.029 467.616 425.14 467.326 425.14C467.037 425.14 466.759 425.029 466.55 424.829C466.341 424.629 466.216 424.357 466.203 424.068ZM474.807 330.18C474.82 329.891 474.944 329.618 475.154 329.419C475.363 329.219 475.641 329.108 475.93 329.108C476.219 329.108 476.498 329.219 476.707 329.419C476.916 329.618 477.04 329.891 477.054 330.18V339.344C477.04 339.633 476.916 339.905 476.707 340.105C476.498 340.305 476.219 340.416 475.93 340.416C475.641 340.416 475.363 340.305 475.154 340.105C474.944 339.905 474.82 339.633 474.807 339.344V330.18ZM476.262 429.048L474.663 347.363C474.663 347.065 474.781 346.779 474.992 346.568C475.203 346.357 475.489 346.239 475.787 346.239C476.086 346.239 476.372 346.357 476.582 346.568C476.793 346.779 476.912 347.065 476.912 347.363L478.511 429.048C478.51 429.347 478.39 429.632 478.178 429.842C477.966 430.052 477.68 430.17 477.381 430.168C477.083 430.167 476.798 430.047 476.588 429.835C476.378 429.623 476.26 429.337 476.262 429.039V429.048ZM275.324 569.611C275.163 570.201 274.808 570.247 272.493 571.783C272.366 571.865 272.224 571.921 272.074 571.946C271.925 571.972 271.773 571.968 271.625 571.933C271.478 571.898 271.339 571.834 271.217 571.744C271.096 571.655 270.993 571.541 270.916 571.411C270.839 571.281 270.79 571.136 270.77 570.986C270.75 570.836 270.761 570.683 270.802 570.538C270.843 570.392 270.913 570.256 271.008 570.138C271.102 570.02 271.22 569.922 271.353 569.851C273.906 568.213 273.737 568.228 274.214 568.228C271.667 565.043 269.08 561.89 266.454 558.77C266.209 559.523 264.412 560.714 263.544 561.149C263.352 561.263 263.131 561.317 262.908 561.303C262.686 561.29 262.472 561.211 262.295 561.076C262.117 560.941 261.985 560.755 261.913 560.544C261.842 560.333 261.835 560.105 261.894 559.89C262.06 559.22 262.503 559.294 263.776 558.355C264.73 557.606 264.644 557.413 265.219 557.316C262.334 553.893 259.327 550.399 256.199 546.834C256.244 546.951 256.27 547.073 256.278 547.198C256.278 548.357 253.916 549.575 252.742 549.939C252.529 549.995 252.304 549.987 252.095 549.916C251.887 549.845 251.704 549.714 251.569 549.539C251.435 549.365 251.355 549.154 251.34 548.934C251.324 548.714 251.374 548.495 251.483 548.303C251.727 547.878 252.109 547.814 252.6 547.626C253.265 547.34 253.869 546.93 254.38 546.418C254.551 546.251 254.772 546.145 255.009 546.114C255.245 546.084 255.486 546.131 255.693 546.249C247.295 536.687 238.769 527.238 230.116 517.905C229.29 518.843 228.341 519.665 227.295 520.35C227.038 520.499 226.732 520.541 226.445 520.465C226.157 520.39 225.911 520.203 225.762 519.946C225.612 519.689 225.57 519.384 225.646 519.096C225.721 518.809 225.908 518.563 226.165 518.413C226.941 517.866 227.671 517.257 228.348 516.592C228.446 516.498 228.56 516.423 228.686 516.372C224.529 511.887 220.446 507.521 216.507 503.35C216.507 503.389 216.534 503.428 216.534 503.467C216.535 503.764 216.418 504.048 216.209 504.259C213.348 506.589 213.519 506.533 213.182 506.623C212.991 506.679 212.788 506.683 212.596 506.632C212.403 506.582 212.228 506.48 212.089 506.337C211.883 506.125 211.768 505.841 211.768 505.545C211.768 505.249 211.883 504.965 212.089 504.753C214.969 502.401 214.801 502.472 215.118 502.386C215.607 502.332 215.409 502.352 215.607 502.386C211.896 498.453 208.171 494.533 204.431 490.626C204.558 490.87 204.59 491.152 204.522 491.418C204.387 491.931 204.302 491.848 200.805 494.447C200.549 494.585 200.25 494.618 199.97 494.539C199.69 494.46 199.452 494.276 199.305 494.025C199.159 493.774 199.115 493.476 199.184 493.194C199.252 492.911 199.428 492.666 199.673 492.511C202.781 490.235 203.184 489.633 203.989 490.171C190.602 476.173 181.153 466.606 181.153 466.606C176.671 492.926 178.008 526.692 178.879 541.042C184.01 540.88 189.146 541.053 194.255 541.56L190.681 495.594L258.251 566.582L222.04 564.382C221.818 570.184 221.368 575.974 220.691 581.741L282.165 578.624C279.964 575.56 277.683 572.555 275.324 569.611ZM192.698 479.161C192.558 479.67 192.334 479.723 189.519 481.787C189.327 481.897 189.106 481.948 188.885 481.933C188.664 481.918 188.452 481.839 188.275 481.704C188.099 481.569 187.967 481.386 187.894 481.176C187.822 480.966 187.813 480.74 187.869 480.525C187.996 480.036 188.209 479.983 191.047 477.902C191.24 477.792 191.46 477.742 191.681 477.756C191.902 477.771 192.114 477.851 192.29 477.985C192.466 478.119 192.598 478.302 192.671 478.512C192.744 478.721 192.753 478.947 192.698 479.161ZM243.444 533.538C243.28 534.125 242.828 534.271 240.845 535.58C240.589 535.717 240.289 535.75 240.01 535.671C239.73 535.592 239.491 535.408 239.345 535.157C239.198 534.906 239.154 534.608 239.223 534.326C239.292 534.043 239.467 533.799 239.713 533.643C241.877 532.213 241.984 532.012 242.647 532.161C242.934 532.239 243.179 532.428 243.329 532.686C243.478 532.943 243.519 533.25 243.444 533.538ZM382.731 331.483C379.552 332.867 375.958 340.774 379.611 349.784C379.779 350.185 380.403 351.031 380.403 351.459C380.403 346.041 380.078 340.4 382.885 335.512C383.068 335.187 385.383 332.635 385.359 332.478C385.083 331.036 383.887 330.97 382.731 331.483Z" fill="#FFD35C"/>
<path d="M360.095 361.801C359.926 361.828 359.76 361.865 359.589 361.891C358.701 362.058 357.784 361.975 356.94 361.651C356.096 361.328 355.358 360.777 354.809 360.06C349.74 359.68 344.643 360.176 339.743 361.527C330.774 363.483 321.3 370.923 312.021 367.906C298.923 363.647 289.603 346.813 288.953 332.011C289.057 328.525 289.339 325.046 289.796 321.588C290.005 320.056 289.623 318.502 288.728 317.242C287.832 315.982 286.49 315.11 284.975 314.803L272.877 312.307C271.224 311.97 268.288 330.529 268.17 331.725C265.155 364.222 286.082 391.681 309.603 396.449C313.334 397.202 318.481 396.434 321.613 398.97C327.435 403.674 319.833 420.73 318.87 426.498C317.234 436.259 313.699 447.188 313.699 457.078C316.371 458.107 319.116 458.936 321.911 459.559C342.792 464.439 364.747 461.221 383.349 450.555C383.371 450.555 384.894 374.918 360.095 361.801ZM276.202 336.715C276.136 336.96 276.011 337.031 275.591 337.449C275.377 337.644 275.097 337.749 274.808 337.743C274.519 337.736 274.243 337.618 274.039 337.414C273.835 337.209 273.717 336.933 273.711 336.644C273.705 336.355 273.811 336.075 274.006 335.862C274.38 335.488 274.517 335.297 274.877 335.202C275.022 335.162 275.174 335.151 275.324 335.171C275.473 335.191 275.617 335.24 275.747 335.317C275.982 335.453 276.159 335.671 276.243 335.929C276.327 336.187 276.312 336.467 276.202 336.715ZM283.948 359.537C283.649 359.537 283.363 359.418 283.152 359.208C282.942 358.997 282.823 358.711 282.823 358.412C282.823 358.114 282.942 357.828 283.152 357.617C283.363 357.406 283.649 357.288 283.948 357.288C284.246 357.288 284.532 357.406 284.743 357.617C284.954 357.828 285.072 358.114 285.072 358.412C285.072 358.711 284.954 358.997 284.743 359.208C284.532 359.418 284.246 359.537 283.948 359.537ZM285.08 325.214C285.079 325.51 284.962 325.795 284.755 326.006C284.597 326.161 284.398 326.265 284.181 326.307C283.965 326.349 283.741 326.327 283.537 326.242C283.333 326.158 283.159 326.015 283.035 325.832C282.912 325.65 282.845 325.435 282.843 325.214C282.794 324.889 282.85 324.557 283.002 324.265C283.106 324.086 283.258 323.939 283.441 323.842C283.625 323.745 283.832 323.702 284.038 323.716C284.245 323.731 284.444 323.804 284.612 323.926C284.779 324.048 284.909 324.215 284.987 324.407C285.109 324.652 285.082 324.752 285.082 325.214H285.08ZM308.76 375.953C308.471 375.939 308.198 375.815 307.998 375.606C307.799 375.397 307.687 375.118 307.687 374.829C307.687 374.54 307.799 374.262 307.998 374.053C308.198 373.843 308.471 373.719 308.76 373.706C309.048 373.719 309.321 373.843 309.521 374.053C309.72 374.262 309.832 374.54 309.832 374.829C309.832 375.118 309.72 375.397 309.521 375.606C309.321 375.815 309.048 375.939 308.76 375.953ZM319.833 388.156C319.544 388.142 319.272 388.018 319.072 387.809C318.872 387.6 318.761 387.321 318.761 387.032C318.761 386.743 318.872 386.465 319.072 386.256C319.272 386.046 319.544 385.922 319.833 385.909C320.122 385.922 320.395 386.046 320.594 386.256C320.794 386.465 320.905 386.743 320.905 387.032C320.905 387.321 320.794 387.6 320.594 387.809C320.395 388.018 320.122 388.142 319.833 388.156ZM325.18 450.374C324.598 450.374 324.493 450.425 324.012 450.048C323.858 449.89 323.755 449.691 323.713 449.475C323.672 449.259 323.695 449.035 323.779 448.832C323.863 448.629 324.005 448.454 324.187 448.331C324.369 448.207 324.584 448.14 324.804 448.136C325.128 448.089 325.46 448.144 325.752 448.293C325.962 448.419 326.125 448.61 326.217 448.837C326.308 449.064 326.322 449.315 326.257 449.551C326.192 449.787 326.052 449.995 325.857 450.144C325.663 450.292 325.425 450.373 325.18 450.374ZM330.523 433.202C330.316 433.242 330.103 433.233 329.9 433.177C329.697 433.12 329.51 433.018 329.354 432.877C329.2 432.72 329.096 432.52 329.055 432.304C329.013 432.088 329.036 431.865 329.12 431.661C329.205 431.458 329.347 431.284 329.529 431.161C329.712 431.037 329.926 430.97 330.146 430.968C330.472 430.92 330.804 430.975 331.097 431.124C331.303 431.252 331.462 431.444 331.55 431.67C331.638 431.896 331.65 432.145 331.584 432.378C331.519 432.612 331.379 432.818 331.186 432.965C330.993 433.112 330.758 433.193 330.515 433.195L330.523 433.202ZM335.488 399.229C335.19 399.229 334.904 399.111 334.693 398.9C334.482 398.689 334.364 398.403 334.364 398.104C334.364 397.806 334.482 397.52 334.693 397.309C334.904 397.098 335.19 396.98 335.488 396.98C335.787 396.981 336.072 397.1 336.283 397.312C336.493 397.523 336.61 397.81 336.609 398.108C336.608 398.406 336.489 398.692 336.277 398.902C336.066 399.113 335.779 399.23 335.481 399.229H335.488ZM340.828 374.417C340.539 374.404 340.267 374.28 340.067 374.07C339.867 373.861 339.756 373.583 339.756 373.294C339.756 373.005 339.867 372.726 340.067 372.517C340.267 372.308 340.539 372.184 340.828 372.17C341.117 372.184 341.39 372.308 341.589 372.517C341.789 372.726 341.901 373.005 341.901 373.294C341.901 373.583 341.789 373.861 341.589 374.07C341.39 374.28 341.117 374.404 340.828 374.417ZM346.911 408.029C346.911 408.325 346.794 408.609 346.584 408.819C346.375 409.028 346.09 409.146 345.794 409.146C345.498 409.146 345.213 409.028 345.004 408.819C344.794 408.609 344.677 408.325 344.677 408.029C344.629 407.704 344.683 407.372 344.833 407.08C344.938 406.901 345.09 406.754 345.274 406.657C345.457 406.56 345.664 406.517 345.871 406.532C346.078 406.546 346.277 406.619 346.445 406.741C346.613 406.863 346.743 407.029 346.821 407.222C346.941 407.469 346.904 407.596 346.904 408.029H346.911ZM349.992 443.51C349.785 443.546 349.573 443.536 349.371 443.48C349.169 443.423 348.982 443.323 348.823 443.185C348.67 443.028 348.566 442.828 348.524 442.612C348.483 442.396 348.506 442.173 348.59 441.969C348.674 441.766 348.816 441.592 348.999 441.469C349.181 441.345 349.396 441.278 349.616 441.276C349.94 441.229 350.271 441.283 350.564 441.43C350.775 441.556 350.938 441.747 351.029 441.975C351.12 442.203 351.134 442.455 351.068 442.691C351.002 442.928 350.86 443.136 350.665 443.284C350.469 443.432 350.23 443.511 349.985 443.51H349.992ZM355.334 430.149C355.046 430.135 354.773 430.011 354.573 429.802C354.374 429.592 354.262 429.314 354.262 429.025C354.262 428.736 354.374 428.458 354.573 428.249C354.773 428.039 355.046 427.915 355.334 427.902C355.623 427.916 355.896 428.041 356.095 428.251C356.294 428.461 356.404 428.739 356.403 429.029C356.402 429.318 356.29 429.596 356.089 429.804C355.889 430.013 355.616 430.136 355.327 430.149H355.334ZM358.757 376.716C358.459 376.716 358.173 376.597 357.962 376.386C357.751 376.175 357.633 375.889 357.633 375.591C357.633 375.293 357.751 375.006 357.962 374.796C358.173 374.585 358.459 374.466 358.757 374.466C359.056 374.466 359.342 374.585 359.553 374.796C359.764 375.006 359.882 375.293 359.882 375.591C359.882 375.889 359.764 376.175 359.553 376.386C359.342 376.597 359.056 376.716 358.757 376.716ZM368.662 401.931C368.661 402.227 368.544 402.511 368.337 402.723C368.179 402.877 367.98 402.982 367.763 403.024C367.547 403.066 367.323 403.043 367.119 402.959C366.915 402.874 366.741 402.732 366.617 402.549C366.494 402.366 366.427 402.151 366.425 401.931C366.377 401.606 366.432 401.274 366.581 400.982C366.686 400.803 366.839 400.656 367.022 400.56C367.206 400.463 367.413 400.419 367.619 400.434C367.826 400.449 368.025 400.521 368.193 400.643C368.361 400.765 368.491 400.932 368.569 401.124C368.701 401.364 368.662 401.488 368.662 401.921V401.931ZM370.975 442.361C370.686 442.348 370.414 442.224 370.214 442.014C370.014 441.805 369.903 441.527 369.903 441.238C369.903 440.949 370.014 440.671 370.214 440.461C370.414 440.252 370.686 440.128 370.975 440.114C371.252 440.143 371.508 440.274 371.694 440.48C371.88 440.687 371.983 440.955 371.983 441.233C371.983 441.511 371.88 441.779 371.694 441.986C371.508 442.192 371.252 442.323 370.975 442.352V442.361Z" fill="#FCAFB7"/>
<path d="M471.269 470.542C472.12 472.065 474.384 473.1 475.027 471.232C486.738 436.816 489.697 443.574 483.721 437.168C483.509 436.962 483.225 436.847 482.929 436.847C482.633 436.847 482.349 436.962 482.137 437.168C481.213 438.026 480.303 438.879 479.381 439.752C477.849 438.198 476.47 436.501 475.262 434.684C475.161 434.517 475.019 434.38 474.849 434.284C474.679 434.189 474.488 434.138 474.293 434.138C474.099 434.138 473.907 434.189 473.738 434.284C473.568 434.38 473.426 434.517 473.325 434.684C472.38 436.757 471.343 438.787 470.218 440.767C469.425 439.897 468.645 439.026 467.853 438.156C467.034 437.246 465.914 435.386 464.499 435.466C463.005 435.544 462.354 437.481 461.731 438.574C459.286 442.87 458.797 442.894 460.367 446.838C463.59 454.922 467.229 462.834 471.269 470.542ZM461.875 444.498C461.313 442.743 462.997 441.092 464.707 437.999C464.914 438.276 469.391 443.178 469.658 443.471C469.779 443.59 469.926 443.68 470.088 443.734C470.249 443.788 470.42 443.805 470.589 443.784C470.758 443.763 470.92 443.703 471.062 443.611C471.205 443.518 471.325 443.394 471.413 443.249C472.531 441.366 473.533 439.43 474.479 437.454C475.709 439.119 477.075 440.679 478.562 442.119C478.776 442.322 479.06 442.436 479.355 442.436C479.649 442.436 479.933 442.322 480.147 442.119L482.875 439.559C485.024 441.809 484.88 440.584 482.447 446.082C479.269 453.268 478.178 456.351 477.313 458.535L468.486 459.872C466.895 456.491 462.699 447.07 461.875 444.498ZM456.416 312.334C464.594 310.685 472.925 309.918 481.267 310.045C481.521 310.033 481.763 309.936 481.955 309.769C482.147 309.601 482.276 309.374 482.322 309.124C482.367 308.873 482.327 308.615 482.207 308.39C482.087 308.166 481.894 307.989 481.66 307.889C480.579 307.4 467.362 307.869 456.095 310.089C455.993 310.114 455.9 310.126 455.797 310.14C454.413 310.456 455.01 312.617 456.416 312.334ZM456.934 318.233C463.178 319.065 467.098 316.057 481.083 315.27C482.513 315.192 482.526 312.945 481.083 313.023C466.724 313.815 463.161 316.847 457.533 316.077C457.251 316.009 456.954 316.054 456.704 316.201C456.454 316.349 456.271 316.587 456.194 316.866C456.116 317.146 456.15 317.444 456.288 317.699C456.426 317.954 456.657 318.146 456.934 318.233ZM456.858 322.651C455.43 322.788 455.452 325.011 456.858 324.894C472.655 323.353 481.941 322.378 481.694 322.463C483.073 322.282 483.071 320.092 481.655 320.221C473.388 321.056 465.122 321.866 456.858 322.651ZM466.32 338.918C466.614 338.911 466.894 338.791 467.102 338.583C467.31 338.375 467.429 338.095 467.435 337.801C467.813 334.383 467.969 330.945 467.905 327.507C467.905 327.209 467.786 326.923 467.575 326.712C467.364 326.501 467.078 326.383 466.78 326.383C466.482 326.383 466.196 326.501 465.985 326.712C465.774 326.923 465.655 327.209 465.655 327.507C465.737 330.945 465.583 334.384 465.196 337.801C465.199 338.097 465.319 338.38 465.53 338.589C465.74 338.798 466.024 338.916 466.32 338.918ZM466.203 424.068C466.216 424.357 466.341 424.629 466.55 424.829C466.759 425.029 467.037 425.14 467.326 425.14C467.616 425.14 467.894 425.029 468.103 424.829C468.312 424.629 468.436 424.357 468.45 424.068C468.164 403.442 467.45 350.532 467.372 344.683C467.358 344.395 467.234 344.122 467.025 343.922C466.815 343.723 466.537 343.611 466.248 343.611C465.959 343.611 465.681 343.723 465.472 343.922C465.262 344.122 465.138 344.395 465.125 344.683C465.523 374.73 465.259 354.375 466.203 424.068ZM477.054 339.334V330.17C477.04 329.881 476.916 329.608 476.707 329.409C476.498 329.209 476.219 329.098 475.93 329.098C475.641 329.098 475.363 329.209 475.154 329.409C474.945 329.608 474.82 329.881 474.807 330.17V339.334C474.82 339.623 474.945 339.895 475.154 340.095C475.363 340.295 475.641 340.406 475.93 340.406C476.219 340.406 476.498 340.295 476.707 340.095C476.916 339.895 477.04 339.623 477.054 339.334ZM476.262 429.038C476.262 429.337 476.38 429.623 476.591 429.834C476.802 430.045 477.088 430.163 477.386 430.163C477.685 430.163 477.971 430.045 478.182 429.834C478.392 429.623 478.511 429.337 478.511 429.038L476.912 347.353C476.912 347.055 476.793 346.769 476.583 346.558C476.372 346.347 476.086 346.229 475.787 346.229C475.489 346.229 475.203 346.347 474.992 346.558C474.781 346.769 474.663 347.055 474.663 347.353L476.262 429.038ZM220.842 553.936C220.842 553.936 220.803 559.188 220.776 561.271C220.764 562.066 220.532 563.093 219.828 563.286C219.828 563.584 219.744 565.284 219.718 565.829C219.608 565.944 219.525 566.082 219.473 566.232C218.035 570.845 215.649 575.108 212.469 578.746C209.29 582.384 205.385 585.319 201.006 587.362C185.556 593.807 169.106 584.905 167.754 569.103C168.18 568.321 168.281 567.402 168.036 566.546C167.79 565.69 167.217 564.965 166.441 564.528C164.59 563.477 162.211 564.587 161.58 567.335C161.417 564.489 161.344 561.643 161.36 558.797C161.36 558.501 161.243 558.216 161.033 558.007C160.824 557.797 160.539 557.68 160.243 557.68C159.947 557.68 159.662 557.797 159.453 558.007C159.243 558.216 159.126 558.501 159.126 558.797C159.088 568.625 160.019 578.433 161.906 588.078C162.776 592.786 163.984 597.424 165.519 601.959C166.624 603.915 168.942 604.247 170.925 604.714C182.728 607.469 194.871 608.481 206.967 607.717C212.571 607.35 216.121 607.768 217.182 602.922C220.551 587.171 222.236 571.107 222.211 555C222.217 554.831 222.182 554.663 222.11 554.51C222.038 554.358 221.93 554.224 221.797 554.12C221.664 554.017 221.508 553.946 221.342 553.914C221.176 553.882 221.005 553.89 220.842 553.936ZM164.417 566.65C164.548 566.5 164.732 566.406 164.931 566.389C165.13 566.372 165.328 566.433 165.483 566.56C165.619 566.655 165.733 566.779 165.817 566.922C165.902 567.066 165.954 567.226 165.972 567.391C165.83 567.468 165.711 567.58 165.625 567.717C165.539 567.854 165.49 568.01 165.483 568.171C165.033 568.403 163.321 567.729 164.417 566.641V566.65ZM214.727 603.47C214.013 605.394 211.128 605.147 209.451 605.291C200.311 606.079 191.111 605.826 182.028 604.536C177.589 603.924 173.192 603.039 168.862 601.885C168.43 601.748 168.041 601.5 167.733 601.167C167.425 600.834 167.209 600.427 167.106 599.985C164.334 590.408 162.557 580.57 161.805 570.628C161.941 570.781 162.118 570.891 162.314 570.948C162.51 571.005 162.718 571.006 162.914 570.95C163.111 570.894 163.287 570.784 163.424 570.632C163.561 570.481 163.652 570.294 163.688 570.093C164.297 570.381 164.975 570.491 165.644 570.408C166.305 575.212 168.366 579.714 171.569 583.354C174.772 586.994 178.976 589.611 183.656 590.878C196.233 594.132 211.412 588.125 219.319 572.369C218.569 582.833 217.034 593.226 214.727 603.46V603.47Z" fill="black"/>
<path d="M163.436 549.934C165.227 550.818 167.166 551.364 169.155 551.545C182.962 554.235 195.806 556.088 209.679 554.262C213.439 553.758 218.784 553.577 219.816 550.389C219.988 549.87 220.005 549.312 219.862 548.785C219.521 547.997 218.99 547.307 218.316 546.776C217.642 546.245 216.847 545.89 216.001 545.743C201.348 541.452 186.006 540.014 170.81 541.508C168.8 541.554 166.804 541.86 164.872 542.418C160.747 543.983 160.5 548.015 163.436 549.934ZM163.703 546.281C163.991 544.814 165.962 544.298 167.458 544.112C183.522 542.059 199.837 543.346 215.38 547.892C216.173 548.137 218.214 548.79 217.564 549.973C217.322 550.275 217.021 550.524 216.679 550.705C216.337 550.886 215.962 550.995 215.576 551.024C210.75 552.006 205.85 552.579 200.928 552.736C189.297 552.647 177.71 551.296 166.37 548.707C165.277 548.413 163.409 547.777 163.703 546.281ZM188.669 481.909C189.368 482.07 189.295 481.963 192.177 479.843C192.434 479.693 192.621 479.448 192.696 479.16C192.772 478.873 192.73 478.567 192.581 478.31C192.431 478.053 192.185 477.867 191.898 477.791C191.61 477.715 191.304 477.757 191.048 477.907C188.114 480.073 188.021 480.034 187.869 480.53C187.795 480.819 187.837 481.125 187.987 481.383C188.136 481.641 188.381 481.83 188.669 481.909ZM200.796 494.379C201.86 493.601 202.925 492.817 203.992 492.027C204.233 491.869 204.405 491.625 204.471 491.345C204.538 491.065 204.494 490.769 204.349 490.52C204.204 490.272 203.968 490.088 203.691 490.008C203.415 489.928 203.118 489.957 202.862 490.09C199.273 492.716 199.285 492.638 199.146 493.117C199.091 493.331 199.101 493.557 199.173 493.766C199.246 493.975 199.379 494.158 199.554 494.292C199.73 494.427 199.941 494.507 200.162 494.522C200.383 494.537 200.603 494.487 200.796 494.379ZM212.882 506.621C213.51 506.542 213.099 506.758 216.209 504.217C216.329 504.101 216.419 503.958 216.471 503.799C216.523 503.641 216.535 503.472 216.507 503.308C216.484 503.101 216.403 502.904 216.274 502.74C216.144 502.577 215.972 502.453 215.775 502.383C215.579 502.312 215.367 502.299 215.163 502.343C214.959 502.387 214.772 502.488 214.622 502.633C213.779 503.32 212.933 504.022 212.089 504.711C211.936 504.869 211.832 505.068 211.79 505.284C211.749 505.5 211.772 505.724 211.856 505.927C211.94 506.13 212.082 506.304 212.265 506.428C212.447 506.551 212.661 506.618 212.882 506.621ZM229.141 516.227C228.212 516.288 228.256 516.946 226.165 518.371C225.908 518.521 225.722 518.767 225.646 519.054C225.57 519.342 225.612 519.648 225.762 519.904C225.912 520.161 226.157 520.348 226.445 520.424C226.732 520.499 227.038 520.458 227.295 520.308C228.34 519.622 229.289 518.799 230.116 517.863C230.213 517.695 230.263 517.504 230.261 517.31C230.259 517.116 230.206 516.926 230.107 516.76C230.007 516.593 229.866 516.456 229.696 516.363C229.526 516.269 229.335 516.222 229.141 516.227ZM242.652 532.161C242.006 532.014 241.948 532.161 239.718 533.643C239.472 533.798 239.297 534.043 239.228 534.326C239.16 534.608 239.203 534.906 239.35 535.157C239.497 535.408 239.735 535.592 240.015 535.671C240.294 535.75 240.594 535.717 240.85 535.579C242.674 534.374 243.295 534.132 243.449 533.538C243.524 533.25 243.483 532.943 243.334 532.685C243.184 532.428 242.939 532.239 242.652 532.161ZM255.681 546.222C255.473 546.105 255.233 546.057 254.996 546.088C254.759 546.119 254.539 546.226 254.368 546.394C253.855 546.903 253.251 547.313 252.588 547.601C252.099 547.775 251.728 547.846 251.468 548.276C251.36 548.468 251.31 548.688 251.326 548.908C251.341 549.128 251.421 549.339 251.556 549.514C251.691 549.688 251.874 549.82 252.083 549.891C252.292 549.962 252.517 549.97 252.73 549.914C253.944 549.535 255.047 548.863 255.94 547.958C256.06 547.837 256.15 547.69 256.202 547.528C256.255 547.366 256.269 547.194 256.244 547.026C256.219 546.857 256.155 546.697 256.057 546.558C255.96 546.418 255.831 546.303 255.681 546.222ZM265.415 557.271C265.348 557.28 265.283 557.295 265.219 557.315C264.437 557.46 264.388 558.208 262.412 559.213C262.28 559.284 262.162 559.381 262.068 559.499C261.974 559.617 261.904 559.752 261.863 559.897C261.822 560.042 261.811 560.194 261.83 560.344C261.849 560.493 261.899 560.637 261.975 560.768C262.051 560.898 262.152 561.011 262.273 561.101C262.394 561.191 262.532 561.256 262.678 561.292C262.825 561.327 262.977 561.333 263.126 561.309C263.275 561.284 263.417 561.23 263.544 561.149C264.378 560.733 266.205 559.528 266.454 558.77C266.519 558.602 266.541 558.421 266.52 558.243C266.498 558.064 266.433 557.893 266.331 557.746C266.229 557.598 266.092 557.477 265.932 557.395C265.772 557.312 265.595 557.27 265.415 557.271ZM272.493 571.782C274.938 570.205 275.183 570.156 275.324 569.611C275.382 569.395 275.375 569.167 275.303 568.955C275.231 568.743 275.099 568.557 274.921 568.42C274.744 568.283 274.53 568.202 274.307 568.186C274.084 568.171 273.861 568.222 273.667 568.333C271.236 569.895 270.977 569.954 270.835 570.501C270.783 570.717 270.794 570.943 270.867 571.152C270.94 571.361 271.073 571.545 271.248 571.68C271.424 571.816 271.635 571.897 271.855 571.916C272.076 571.934 272.298 571.888 272.493 571.782ZM456.477 475.105H448.579C448.428 475.098 448.277 475.121 448.135 475.174C447.993 475.227 447.864 475.309 447.754 475.413C447.644 475.518 447.557 475.643 447.498 475.783C447.438 475.922 447.407 476.072 447.407 476.223C447.407 476.375 447.438 476.525 447.498 476.664C447.557 476.803 447.644 476.929 447.754 477.033C447.864 477.138 447.993 477.219 448.135 477.272C448.277 477.325 448.428 477.349 448.579 477.342H456.477C456.764 477.328 457.036 477.205 457.235 476.996C457.433 476.788 457.544 476.511 457.544 476.223C457.544 475.935 457.433 475.658 457.235 475.45C457.036 475.242 456.764 475.118 456.477 475.105ZM460.848 470.479C457.8 470.001 454.719 469.755 451.633 469.745C451.344 469.759 451.072 469.883 450.872 470.092C450.672 470.301 450.561 470.579 450.561 470.869C450.561 471.158 450.672 471.436 450.872 471.645C451.072 471.854 451.344 471.979 451.633 471.992C459.68 471.992 461.181 473.528 461.628 471.875C461.669 471.732 461.681 471.582 461.664 471.435C461.647 471.287 461.6 471.145 461.528 471.015C461.456 470.885 461.358 470.771 461.242 470.679C461.125 470.587 460.991 470.519 460.848 470.479ZM487.257 474.689C480.551 474.511 473.849 474.325 467.149 474.129C466.851 474.129 466.565 474.248 466.354 474.459C466.143 474.669 466.025 474.956 466.025 475.254C466.025 475.552 466.143 475.838 466.354 476.049C466.565 476.26 466.851 476.379 467.149 476.379C473.855 476.559 480.558 476.745 487.257 476.936C487.546 476.923 487.818 476.798 488.018 476.589C488.218 476.38 488.329 476.102 488.329 475.813C488.329 475.523 488.218 475.245 488.018 475.036C487.818 474.827 487.546 474.703 487.257 474.689ZM497.692 471.946L484.203 471.44C482.761 471.388 482.761 473.623 484.203 473.689L497.692 474.193C499.135 474.246 499.135 472 497.692 471.946ZM285.082 600.418H272.491C272.192 600.418 271.906 600.537 271.695 600.748C271.484 600.959 271.366 601.245 271.366 601.543C271.366 601.841 271.484 602.127 271.695 602.338C271.906 602.549 272.192 602.668 272.491 602.668H285.082C285.381 602.668 285.667 602.549 285.878 602.338C286.089 602.127 286.207 601.841 286.207 601.543C286.207 601.245 286.089 600.959 285.878 600.748C285.667 600.537 285.381 600.418 285.082 600.418ZM313.711 597.157C306.848 596.941 299.975 596.668 293.109 596.423C291.669 596.369 291.669 598.624 293.109 598.67C299.975 598.916 306.842 599.161 313.711 599.404C314 599.39 314.272 599.266 314.472 599.057C314.672 598.847 314.783 598.569 314.783 598.28C314.783 597.991 314.672 597.713 314.472 597.504C314.272 597.294 314 597.17 313.711 597.157ZM306.29 592.245C305.994 592.245 305.71 592.362 305.5 592.572C305.291 592.781 305.173 593.066 305.173 593.362C305.178 593.657 305.297 593.939 305.506 594.147C305.714 594.356 305.995 594.476 306.29 594.482C309.344 594.714 312.386 594.946 315.439 595.196C315.586 595.196 315.732 595.167 315.868 595.11C316.003 595.054 316.127 594.972 316.23 594.868C316.334 594.764 316.416 594.64 316.472 594.504C316.528 594.368 316.557 594.223 316.557 594.076C316.552 593.781 316.433 593.5 316.225 593.292C316.016 593.083 315.734 592.965 315.439 592.961C312.386 592.724 309.344 592.496 306.29 592.245ZM380.137 599.873C371.724 599.61 363.304 600.005 354.953 601.056C353.537 601.237 353.525 603.487 354.953 603.306C363.303 602.243 371.724 601.847 380.137 602.122C381.579 602.161 381.567 599.917 380.137 599.873ZM378.992 604.995H368.115C367.826 605.009 367.553 605.133 367.353 605.342C367.154 605.551 367.042 605.83 367.042 606.119C367.042 606.408 367.154 606.686 367.353 606.895C367.553 607.104 367.826 607.229 368.115 607.242H378.992C379.281 607.229 379.554 607.104 379.754 606.895C379.953 606.686 380.065 606.408 380.065 606.119C380.065 605.83 379.953 605.551 379.754 605.342C379.554 605.133 379.281 605.009 378.992 604.995ZM297.087 321.197C299.166 324.412 302.383 323.153 303.053 319.339C303.811 315.131 301.564 312.292 300.647 310.229C299.71 308.464 299.27 306.478 299.376 304.483C299.584 302.95 300.884 302.378 302.234 301.974C307.124 300.527 316.811 300.898 318.234 296.478C319.339 293.099 315.056 291.488 312.515 291.214C309.088 291.074 305.675 291.718 302.535 293.099C300.024 288.774 296.007 285.554 291.043 286.38C279.933 288.206 273.344 300.251 276.461 306.918C278.478 311.209 284.544 312.495 289.107 314.009C296.965 316.6 295.403 318.586 297.087 321.197ZM284.209 310.021C279.029 308.121 276.948 305.808 278.341 300.324C279.228 297.428 280.867 294.82 283.092 292.765C285.316 290.71 288.045 289.282 291.002 288.627C290.95 288.654 290.899 288.666 290.848 288.693C290.72 288.767 290.609 288.865 290.52 288.983C290.431 289.1 290.365 289.233 290.328 289.376C290.291 289.518 290.282 289.667 290.301 289.812C290.321 289.958 290.37 290.099 290.444 290.226C290.599 290.477 290.845 290.659 291.13 290.734C291.415 290.809 291.719 290.772 291.977 290.629C294.591 289.468 295.51 290.094 296.188 289.458C296.592 289.708 296.979 289.987 297.344 290.292C295.919 290.498 294.551 290.997 293.329 291.759C293.073 291.909 292.886 292.154 292.81 292.442C292.734 292.729 292.776 293.035 292.926 293.292C293.076 293.549 293.321 293.736 293.609 293.811C293.896 293.887 294.202 293.845 294.459 293.695C297.185 291.984 298.596 292.808 298.943 291.942C299.76 292.88 300.458 293.914 301.024 295.021C301.149 295.232 301.339 295.398 301.566 295.492C301.793 295.586 302.045 295.603 302.283 295.541C304.992 294.374 307.87 293.646 310.809 293.385C312.46 293.22 314.119 293.618 315.515 294.515C316.232 295.094 316.249 295.654 315.919 296.101C314.706 297.215 313.158 297.896 311.518 298.038C305.217 299.436 297.794 298.864 297.117 304.275C297.026 307.882 298.127 311.418 300.249 314.336C300.888 315.785 301.087 317.389 300.821 318.95C300.464 320.581 299.943 321.331 299.109 320.248C298.646 319.538 298.291 318.763 298.058 317.947C296.202 312.982 290.217 312.226 284.209 310.021Z" fill="black"/>
<path d="M323.225 308.057C323.066 309.578 321.848 310.202 320.509 310.63C315.667 312.202 306.056 312.097 304.574 316.427C303.416 319.833 307.731 321.432 310.306 321.664C313.764 321.732 317.192 321.012 320.33 319.559C322.927 323.784 326.993 326.916 331.895 326.031C342.638 324.104 349.369 312.128 346.152 305.29C344.147 300.996 337.981 299.769 333.364 298.375C325.54 296.023 326.907 294.143 325.24 291.5C322 286.365 316.819 292.033 320.159 299.402C322.091 301.879 323.167 304.916 323.225 308.057ZM321.403 293.605C321.518 292.994 321.787 291.681 322.406 291.759C323.369 291.881 323.499 292.837 324.225 294.693C327.824 303.984 347.643 298.432 344.274 311.967C342.413 319.529 333.905 324.388 329.421 323.948C326.242 323.642 323.218 320.38 321.738 317.591C321.612 317.38 321.421 317.216 321.193 317.122C320.966 317.029 320.715 317.011 320.477 317.072C317.783 318.308 314.909 319.106 311.963 319.437C310.309 319.64 308.635 319.269 307.222 318.385C306.464 317.774 306.489 317.3 306.858 316.747C308.259 314.911 313.007 314.402 317.631 313.569C320.868 312.984 324.988 312.126 325.416 308.226C325.432 304.616 324.254 301.101 322.064 298.231C321.385 296.79 321.151 295.18 321.391 293.605H321.403Z" fill="black"/>
<path d="M321.406 315.661C320.719 316.935 322.653 318.065 323.343 316.791C325.626 312.603 329.783 310.253 330.541 311.189C330.866 311.581 330.245 312.502 330.052 312.879C329.353 314.17 328.465 315.348 327.416 316.375C326.374 317.402 327.922 318.884 329 317.962C330.006 317.1 331.121 316.375 332.316 315.803C333.135 315.414 334.719 314.568 335.472 315.466C335.689 315.781 335.819 316.146 335.851 316.527C335.884 316.908 335.816 317.29 335.656 317.637C335.036 318.738 334.145 319.664 333.069 320.326C332.823 320.482 332.648 320.727 332.579 321.009C332.51 321.292 332.554 321.59 332.701 321.841C332.847 322.092 333.086 322.276 333.366 322.354C333.645 322.433 333.945 322.4 334.201 322.263C335.749 321.306 336.996 319.932 337.8 318.299C338.077 317.593 338.164 316.827 338.052 316.077C337.94 315.326 337.634 314.618 337.164 314.023C336.531 313.402 335.711 313.005 334.831 312.892C333.951 312.779 333.058 312.958 332.289 313.4C332.343 313.282 332.418 313.155 332.472 313.048C332.745 312.626 332.898 312.139 332.916 311.637C332.933 311.136 332.814 310.639 332.571 310.2C332.328 309.761 331.97 309.396 331.536 309.144C331.102 308.893 330.607 308.764 330.105 308.771C328.151 308.974 326.332 309.863 324.971 311.28C323.514 312.5 322.304 313.987 321.406 315.661ZM401.309 338.084C402.115 337.291 402.718 336.315 403.067 335.239C403.416 334.162 403.499 333.018 403.311 331.902C403.122 330.787 402.668 329.733 401.985 328.831C401.302 327.929 400.412 327.205 399.39 326.721C398.367 326.236 397.243 326.006 396.113 326.049C394.982 326.091 393.879 326.407 392.896 326.967C391.914 327.528 391.081 328.317 390.469 329.269C389.856 330.22 389.483 331.305 389.38 332.432C389.137 332.131 388.83 331.888 388.481 331.723C388.132 331.557 387.75 331.472 387.363 331.475C386.977 331.478 386.596 331.567 386.249 331.738C385.902 331.908 385.598 332.154 385.36 332.458C385.384 332.615 383.084 335.168 382.886 335.493C380.079 340.366 380.404 346.006 380.404 351.439C380.404 350.999 379.768 350.165 379.612 349.764C378.545 347.337 378.019 344.707 378.07 342.056C378.122 339.406 378.75 336.798 379.91 334.414C380.457 333.118 381.461 332.068 382.732 331.463C383.888 330.974 385.071 331.016 385.36 332.458C385.295 329.78 384.685 327.143 383.567 324.708C382.448 322.274 380.845 320.092 378.856 318.298C376.866 316.504 374.531 315.134 371.994 314.273C369.458 313.411 366.772 313.076 364.101 313.287C363.406 313.247 362.711 313.357 362.062 313.61C361.414 313.863 360.828 314.253 360.345 314.754C350.005 313.938 337.587 325.077 334.428 335.067C330.976 346.031 337.685 355.605 347.489 356.278C349.245 358.427 352.25 357.803 354.289 355.745C353.994 357.204 354.177 358.72 354.81 360.067C355.359 360.784 356.097 361.335 356.941 361.658C357.785 361.982 358.701 362.065 359.59 361.899C359.761 361.899 359.93 361.835 360.096 361.808C361.468 361.57 362.768 361.022 363.896 360.206C365.025 359.389 365.952 358.326 366.607 357.097C366.439 358.023 366.592 358.979 367.038 359.808C367.485 360.637 368.2 361.29 369.066 361.659C369.945 361.993 370.89 362.114 371.824 362.015C372.759 361.916 373.657 361.598 374.445 361.087C377.424 358.809 379.496 355.548 380.294 351.884C380.487 357.158 386.162 358.454 388.079 352.6C388.081 353.273 388.223 353.937 388.495 354.552C388.768 355.166 389.164 355.718 389.661 356.171C390.157 356.625 390.742 356.971 391.378 357.187C392.015 357.403 392.689 357.485 393.359 357.427C394.029 357.37 394.679 357.174 395.269 356.852C395.86 356.53 396.377 356.09 396.788 355.558C397.2 355.026 397.496 354.415 397.659 353.763C397.823 353.111 397.849 352.432 397.737 351.769C398.703 352.709 400 353.233 401.348 353.228C402.697 353.222 403.989 352.689 404.949 351.742C408.067 348.691 407.773 342.539 401.309 338.084ZM355.042 319.436C354.134 319.992 353.444 320.841 353.084 321.843C352.725 322.845 352.719 323.939 353.066 324.945C353.57 325.746 354.254 326.418 355.064 326.906C355.874 327.394 356.788 327.684 357.731 327.754C354.11 328.928 349.279 332.253 349.543 336.033C349.675 338.048 351.961 339.879 353.756 338.943C354.145 338.735 354.489 338.424 354.885 338.241C356.352 337.566 358.032 338.84 358.758 340.282C359.464 341.788 359.677 343.478 359.367 345.111C359.057 346.745 358.239 348.239 357.03 349.38C356.54 349.963 355.916 350.418 355.212 350.708C354.509 350.998 353.745 351.113 352.987 351.044C352.229 350.975 351.499 350.724 350.859 350.312C350.219 349.9 349.688 349.34 349.311 348.679C349.348 350.916 347.235 351.992 346.866 353.955C338.093 352.595 333.037 343.745 337.274 333.889C337.856 335.336 338.847 336.582 340.125 337.476C341.404 338.369 342.916 338.87 344.475 338.918C344.011 339.545 343.413 340.059 342.724 340.423C342.035 340.788 341.273 340.993 340.494 341.023C339.635 341.088 338.781 340.839 338.091 340.322C337.834 340.173 337.528 340.132 337.241 340.207C336.954 340.283 336.708 340.469 336.558 340.725C336.415 340.983 336.378 341.287 336.453 341.572C336.528 341.858 336.71 342.103 336.961 342.258C341.563 345.481 348.942 340.28 346.162 337.368C344.939 336.119 343.086 337.001 341.186 335.498C339.892 334.292 339.043 332.684 338.78 330.935C342.976 324.028 351.969 316.341 360.093 316.925C360.181 317.156 360.324 317.36 360.511 317.521C360.698 317.682 360.921 317.794 361.162 317.847C359.017 317.832 356.906 318.383 355.042 319.444V319.436Z" fill="black"/>
<path d="M346.517 326.889C346.178 326.889 345.847 326.989 345.566 327.177C345.284 327.365 345.065 327.632 344.936 327.945C344.806 328.258 344.772 328.602 344.838 328.934C344.904 329.266 345.067 329.571 345.307 329.81C345.546 330.05 345.851 330.213 346.183 330.279C346.515 330.345 346.859 330.311 347.172 330.181C347.484 330.052 347.752 329.832 347.94 329.551C348.128 329.269 348.228 328.939 348.228 328.6C348.232 328.374 348.19 328.15 348.105 327.941C348.021 327.732 347.895 327.541 347.735 327.382C347.575 327.222 347.385 327.096 347.176 327.011C346.967 326.927 346.743 326.885 346.517 326.889ZM349.844 321.871C349.592 322.026 349.409 322.272 349.334 322.558C349.259 322.844 349.297 323.148 349.441 323.407C349.742 323.953 349.875 324.576 349.824 325.198C349.773 325.82 349.54 326.413 349.155 326.903C349.007 327.16 348.966 327.466 349.042 327.753C349.117 328.04 349.303 328.285 349.558 328.436C349.685 328.511 349.826 328.56 349.972 328.581C350.118 328.601 350.266 328.592 350.409 328.554C350.552 328.517 350.685 328.451 350.802 328.362C350.92 328.272 351.018 328.161 351.091 328.033C353.204 325.282 351.588 320.752 349.844 321.871ZM344.478 338.925C344.458 338.956 344.442 338.989 344.429 339.023L344.478 338.925ZM354.223 507.447C354.451 507.031 354.302 506.811 354.522 504.789V504.711C355.744 494.026 362.871 484.884 365.769 474.674C365.848 474.388 365.81 474.082 365.663 473.823C365.517 473.565 365.274 473.375 364.988 473.296C364.701 473.217 364.395 473.255 364.137 473.402C363.878 473.548 363.689 473.791 363.61 474.078C360.431 485.268 352.551 494.975 352.118 506.921C352.113 507.173 352.193 507.42 352.346 507.62C352.5 507.821 352.716 507.963 352.961 508.025C353.206 508.086 353.464 508.062 353.693 507.957C353.923 507.852 354.11 507.672 354.223 507.447ZM340.316 599.015C338.177 597.332 324.967 598.861 322.693 600.173C321.419 600.907 312.231 609.271 316.35 609.44C322.952 609.711 329.583 609.724 336.184 609.465C337.659 609.545 339.124 609.174 340.382 608.401C341.537 607.107 342.17 605.43 342.157 603.695C342.145 601.961 341.489 600.293 340.316 599.015ZM422.625 573.919C422.144 574.256 421.733 574.684 421.417 575.178C420.291 576.599 418.81 577.698 417.124 578.364C415.438 579.03 413.606 579.24 411.813 578.973L411.63 580.169C412.451 591.442 412.324 593.589 413.813 595.831C414.343 596.738 415.191 597.417 416.191 597.736C417.192 598.055 418.276 597.992 419.233 597.56C420.357 596.669 421.135 595.415 421.434 594.012C425.683 581.401 426.583 579.567 426.309 576.958C426.043 574.12 423.96 573.166 422.625 573.919Z" fill="black"/>
<path d="M100.589 222.505V481.85" stroke="black"/>
</svg>
