<svg width="133" height="133" viewBox="0 0 133 133" fill="none" xmlns="http://www.w3.org/2000/svg">
<path d="M63.5633 79.3493C64.6287 76.4803 60.8108 74.2068 57.4812 75.7766C55.5278 76.6968 49.8896 82.3265 50.0228 83.1926C50.8663 88.4975 61.2103 85.5744 63.5633 79.3493Z" fill="#ACCDFF"/>
<path d="M91.843 67.6563C85.1393 71.0666 46.3382 105.44 43.8077 110.15C42.4315 112.694 46.7822 115.13 49.6234 113.452C52.953 111.557 81.4546 84.8702 93.8851 71.7162C95.6165 69.9298 93.9295 66.6278 91.843 67.6563Z" fill="#ACCDFF"/>
<path d="M6.20509 64.7879C-0.0545897 69.8762 -1.20886 71.825 1.09968 73.2324C5.62796 76.0472 8.55807 71.825 14.1074 67.4403C17.881 64.4089 11.2217 60.6739 6.20509 64.7879Z" fill="#ACCDFF"/>
<path d="M25.6944 75.3435C30.4447 72.5287 37.2371 66.7907 45.2726 58.671C48.691 55.2066 55.7054 48.9268 60.8552 44.7045C70.0449 37.1802 71.066 36.0976 69.601 35.448C68.3579 34.8526 68.0915 35.0155 52.9973 46.1125C37.8586 57.2636 26.7599 66.0329 21.6101 71.013C15.1285 77.2381 19.4347 79.0786 25.6944 75.3435Z" fill="#ACCDFF"/>
<path d="M23.1194 58.292C26.4046 56.0726 32.7087 50.6594 46.1604 39.1835C64.7618 23.323 76.3489 14.1747 78.1247 11.847L79.4565 10.1147C77.5476 8.22009 76.3933 6.48788 70.2668 10.3853C62.0093 15.5821 33.2415 40.5363 22.4535 51.4708C16.3714 57.5336 18.1472 61.6481 23.1194 58.292Z" fill="#ACCDFF"/>
<path d="M17.5257 92.8822C12.9086 97.3751 12.7754 97.5916 14.5068 99.1614C17.8808 102.193 30.3114 94.8309 28.3136 90.9334C26.4046 87.1983 22.6311 87.8479 17.5257 92.8822Z" fill="#ACCDFF"/>
<path d="M125.849 1.2369C122.653 3.18563 56.7708 57.4796 36.4823 76.3715C27.8253 84.4371 33.3303 85.6821 39.3236 82.1636C47.0039 77.6706 50.7775 71.4455 104.54 27.8696C126.071 10.3852 132.065 4.70121 132.065 1.66984C132.065 -0.170634 128.513 -0.38705 125.849 1.2369Z" fill="#ACCDFF"/>
<path d="M95.217 50.3341C99.1681 45.9494 108.891 37.0718 111.643 34.69C112.797 33.5533 109.779 32.8496 108.225 33.8781C81.8097 51.525 57.7033 75.181 65.6944 75.181C69.024 75.181 84.8286 61.9723 95.217 50.3341Z" fill="#ACCDFF"/>
<path d="M108.979 50.4429C97.7918 58.0755 95.6608 60.7815 99.39 62.9468C102.32 64.6248 103.208 64.1377 111.243 56.7216C121.765 46.9779 117.769 44.4343 108.979 50.4429Z" fill="#ACCDFF"/>
<path d="M56.3711 123.791C51.3545 127.743 50.5554 130.125 53.663 131.965C56.9926 133.968 61.9649 131.262 64.3178 126.227C65.5165 123.575 59.1236 121.626 56.3711 123.791Z" fill="#ACCDFF"/>
<path d="M108.313 75.2892C103.43 79.6198 92.0204 90.3378 80.1225 100.027C63.652 113.452 60.4112 117.837 65.4278 119.623C68.491 120.706 75.2835 114.968 87.4477 100.677C91.8428 95.4803 103.252 83.842 109.29 78.1582C112.575 75.0727 111.598 72.3661 108.313 75.2892Z" fill="#ACCDFF"/>
</svg>
