<svg width="234" height="234" viewBox="0 0 234 234" fill="none" xmlns="http://www.w3.org/2000/svg">
<g clip-path="url(#clip0_1574_5430)">
<circle cx="117.684" cy="112.211" r="69.7895" fill="white"/>
<path fill-rule="evenodd" clip-rule="evenodd" d="M0 117C0 85.9697 12.3267 56.2103 34.2685 34.2685C56.2103 12.3267 85.9697 0 117 0C148.03 0 177.79 12.3267 199.731 34.2685C221.673 56.2103 234 85.9697 234 117C234 148.03 221.673 177.79 199.731 199.731C177.79 221.673 148.03 234 117 234C85.9697 234 56.2103 221.673 34.2685 199.731C12.3267 177.79 0 148.03 0 117ZM110.323 167.076L177.684 82.8672L165.516 73.1328L108.077 144.908L67.392 111.01L57.408 122.99L110.323 167.076Z" fill="#2ED585"/>
</g>
<defs>
<clipPath id="clip0_1574_5430">
<rect width="234" height="234" fill="white"/>
</clipPath>
</defs>
</svg>
