<svg width="45" height="46" viewBox="0 0 45 46" fill="none" xmlns="http://www.w3.org/2000/svg">
<g clip-path="url(#clip0_2306_3581)">
<path d="M21.3262 22.1162H44.9801C44.9921 22.4208 45 22.7265 45 23.0343C45 35.458 35.1477 45.5293 22.994 45.5293C22.8049 45.5293 22.616 45.5268 22.4279 45.5219C21.8154 45.5061 21.3262 44.9955 21.3262 44.369V22.1162Z" fill="#0573CD"/>
<path d="M45 23.034C45 23.1569 44.999 23.279 44.9972 23.4015H21.5569V0.588196C22.032 0.55661 22.511 0.539062 22.994 0.539062C35.1477 0.539062 45 10.6103 45 23.034Z" fill="#FDB44C"/>
<path d="M1.01447 24.1358C0.997307 23.7705 0.988037 23.4034 0.988037 23.0339C0.988037 10.7944 10.5506 0.838242 22.455 0.545898V24.1358H1.01447Z" fill="#FC6930"/>
<path d="M22.455 23.4014V45.5222C10.6698 45.2327 1.18036 35.4717 0.990845 23.4014H22.455Z" fill="#FDADE0"/>
<path d="M41.3175 11.0065V12.8426C41.3175 13.8569 40.5131 14.6792 39.5209 14.6792H26.0479C25.0556 14.6792 24.2516 13.8569 24.2516 12.8426V11.0065C24.2516 9.9922 25.0556 9.16992 26.0479 9.16992H39.5209C40.5131 9.16992 41.3175 9.9922 41.3175 11.0065Z" fill="#0573CD"/>
<path d="M41.3175 11.0065V12.8426C41.3175 13.8569 40.6402 14.6792 39.8045 14.6792H28.4587C27.6234 14.6792 26.946 13.8569 26.946 12.8426V11.0065C26.946 9.9922 27.6234 9.16992 28.4587 9.16992H39.8045C40.6402 9.16992 41.3175 9.9922 41.3175 11.0065Z" fill="#528ED7"/>
<path d="M39.6298 41.8762C38.5775 42.9519 36.8715 42.9519 35.8193 41.8762L35.7327 41.7878C34.6805 40.7121 34.6805 38.9683 35.7327 37.8926C36.785 36.8166 38.4913 36.8166 39.5436 37.8926L39.6298 37.9807C40.6824 39.0563 40.6824 40.8006 39.6298 41.8762ZM39.4533 29.3602L38.183 28.0617C37.4816 27.3444 36.3442 27.3444 35.6424 28.0617L26.1156 37.8003C25.4142 38.5173 25.4142 39.68 26.1156 40.3973L27.3859 41.6959C28.0876 42.4128 29.2251 42.4128 29.9265 41.6959L39.4533 31.9569C40.1547 31.2399 40.1547 30.0772 39.4533 29.3602ZM25.9391 31.7765C24.8868 30.7009 24.8868 28.9566 25.9391 27.881C26.9914 26.8053 28.6974 26.8053 29.7497 27.881L29.8362 27.9694C30.8885 29.0451 30.8885 30.7893 29.8362 31.865C28.7839 32.9406 27.0779 32.9406 26.0253 31.865L25.9391 31.7765Z" fill="#FDC5E6"/>
<path d="M31.8862 39.6919L29.9265 41.6955C29.2247 42.4125 28.0873 42.4125 27.3859 41.6955L26.1156 40.397C25.4142 39.6796 25.4142 38.5169 26.1156 37.7999L28.0756 35.7963C27.3739 36.5137 27.3739 37.6764 28.0756 38.3934L29.3459 39.6919C30.0473 40.4089 31.1847 40.4089 31.8862 39.6919ZM26.0253 31.8646C27.0779 32.9403 28.7839 32.9403 29.8362 31.8646C30.161 31.5323 30.3851 31.1367 30.5098 30.7166C29.5893 31.0009 28.5494 30.7717 27.8219 30.0281L27.7354 29.94C27.0079 29.1963 26.7837 28.1333 27.0621 27.1924C26.6512 27.3194 26.2639 27.5486 25.9391 27.881C24.8868 28.9566 24.8868 30.7005 25.9391 31.7762L26.0253 31.8646ZM37.6155 40.0397L37.529 39.9512C36.8018 39.2076 36.5773 38.1445 36.8557 37.2036C36.4448 37.331 36.0575 37.5602 35.7327 37.8922C34.6805 38.9679 34.6805 40.7121 35.7327 41.7878L35.8193 41.8759C36.8715 42.9515 38.5775 42.9515 39.6298 41.8759C39.9549 41.5439 40.1791 41.148 40.3034 40.7279C39.3829 41.0125 38.343 40.7834 37.6155 40.0397Z" fill="#FDADE0"/>
<path d="M12.6614 35.203L15.2017 37.8C15.9034 38.517 15.9034 39.6797 15.2017 40.3967L13.9314 41.6952C13.23 42.4126 12.0926 42.4126 11.3908 41.6952L8.85056 39.0985C8.67513 38.9192 8.39086 38.9192 8.21542 39.0985L5.67483 41.6952C4.97342 42.4126 3.83599 42.4126 3.13458 41.6952L1.86395 40.3967C1.16254 39.6797 1.16254 38.517 1.86395 37.8L4.40454 35.203C4.57997 35.0236 4.57997 34.733 4.40454 34.5537L1.86395 31.9567C1.16254 31.2397 1.16254 30.077 1.86395 29.36L3.13458 28.0614C3.83599 27.3441 4.97342 27.3441 5.67483 28.0614L8.21542 30.6581C8.39086 30.8375 8.67513 30.8375 8.85056 30.6581L11.3908 28.0614C12.0926 27.3441 13.23 27.3441 13.9314 28.0614L15.2017 29.36C15.9034 30.077 15.9034 31.2397 15.2017 31.9567L12.6614 34.5537C12.486 34.733 12.486 35.0236 12.6614 35.203Z" fill="#FC6930"/>
<path d="M2.79675 41.3501L1.86429 40.3969C1.16254 39.6795 1.16254 38.5168 1.86429 37.7998L4.40454 35.2028C4.57997 35.0235 4.57997 34.7329 4.40454 34.5535L1.86395 31.9565C1.16254 31.2395 1.16254 30.0768 1.86395 29.3598L2.79675 28.4062C2.64329 29.0148 2.79778 29.6879 3.26402 30.1645L6.60489 33.5796C7.30664 34.297 7.30664 35.4597 6.60489 36.1767L3.26402 39.5921C2.79778 40.0684 2.64329 40.7415 2.79675 41.3501Z" fill="#FC5426"/>
<path d="M17.0659 11.0066V12.8428C17.0659 13.8571 16.2615 14.6793 15.2696 14.6793H11.6768C11.4285 14.6793 11.2277 14.8846 11.2277 15.1384V18.8111C11.2277 19.825 10.4233 20.6473 9.43108 20.6473H7.63481C6.64261 20.6473 5.8382 19.825 5.8382 18.8111V15.1384C5.8382 14.8846 5.63736 14.6793 5.38914 14.6793H1.79626C0.804405 14.6793 0 13.8571 0 12.8428V11.0066C0 9.99237 0.804405 9.17009 1.79626 9.17009H5.38914C5.63736 9.17009 5.8382 8.96478 5.8382 8.71104V5.03833C5.8382 4.02443 6.64261 3.20215 7.63481 3.20215H9.43108C10.4233 3.20215 11.2277 4.02443 11.2277 5.03833V8.71104C11.2277 8.96478 11.4285 9.17009 11.6768 9.17009H15.2696C16.2615 9.17009 17.0659 9.99237 17.0659 11.0066Z" fill="#FDE0B8"/>
<path d="M8.08388 20.6473H7.63481C6.64261 20.6473 5.8382 19.825 5.8382 18.8111V15.1384C5.8382 14.8846 5.63736 14.6793 5.38914 14.6793H1.79626C0.804405 14.6793 0 13.8571 0 12.8428V11.0066C0 9.99237 0.804405 9.17009 1.79626 9.17009H5.38914C5.63736 9.17009 5.8382 8.96478 5.8382 8.71104V5.03833C5.8382 4.02443 6.64261 3.20215 7.63481 3.20215H8.08388V20.6473Z" fill="#FDD194"/>
</g>
<defs>
<clipPath id="clip0_2306_3581">
<rect width="45" height="46" fill="white"/>
</clipPath>
</defs>
</svg>
