<svg width="151" height="168" viewBox="0 0 151 168" fill="none" xmlns="http://www.w3.org/2000/svg">
<path d="M105.092 70.5481C105.092 90.2052 88.9789 94.5925 72.0189 94.5925C55.0588 94.5925 43.2642 90.2052 43.2642 70.5481C43.2642 50.891 46.2681 30.188 73.7489 30.188C101.23 30.188 105.092 50.891 105.092 70.5481Z" fill="#323232"/>
<path d="M113.895 34.0523C113.895 44.0118 105.821 52.0855 95.8614 52.0855C85.9019 52.0855 77.8281 44.0118 77.8281 34.0523C77.8281 24.0928 85.9019 16.019 95.8614 16.019C105.821 16.019 113.895 24.0928 113.895 34.0523Z" fill="#323232"/>
<rect x="60.6536" y="79.5648" width="29.2885" height="55.0149" rx="5.91529" fill="white" stroke="#323232" stroke-width="1.71745" stroke-linecap="round"/>
<path d="M61.4678 115.045V97.4597H90.9237C88.7051 106.477 75.4768 115.532 61.4678 115.045Z" fill="#7E7E7E" fill-opacity="0.45"/>
<path d="M55.0717 78.4914C55.0717 83.5101 50.5418 87.7227 44.767 87.7227C38.9921 87.7227 34.4622 83.5101 34.4622 78.4914C34.4622 73.4727 38.9921 69.2601 44.767 69.2601C50.5418 69.2601 55.0717 73.4727 55.0717 78.4914Z" fill="white" stroke="#323232" stroke-width="1.71745"/>
<path d="M92.4264 78.4914C92.4264 83.5101 96.9562 87.7227 102.731 87.7227C108.506 87.7227 113.036 83.5101 113.036 78.4914C113.036 73.4727 108.506 69.2601 102.731 69.2601C96.9562 69.2601 92.4264 73.4727 92.4264 78.4914Z" fill="white" stroke="#323232" stroke-width="1.71745"/>
<path d="M102.302 74.0953C102.302 83.7351 99.7438 91.0862 94.9966 96.0253C90.2544 100.959 83.2092 103.609 73.9769 103.609C64.744 103.609 57.5804 100.959 52.7228 96.0183C47.8633 91.0761 45.1966 83.7256 45.1966 74.0953C45.1966 64.4528 47.8723 54.3951 52.8303 46.774C57.7817 39.1629 64.9513 34.0523 73.9769 34.0523C82.9989 34.0523 90.0532 39.1589 94.8911 46.7665C99.7366 54.3862 102.302 64.4457 102.302 74.0953Z" fill="white" stroke="#323232" stroke-width="1.71745" stroke-linecap="round"/>
<path d="M73.9639 73.5537C73.1177 76.4784 72.6758 78.0066 72.6758 81.0493C73.8091 81.5914 74.8927 81.727 76.7547 81.7116" stroke="#323232" stroke-width="1.71745" stroke-linecap="round" stroke-linejoin="round"/>
<path d="M58.8365 78.3734C59.7216 78.3734 60.5066 77.8945 61.0629 77.1527C61.6192 76.411 61.9569 75.3961 61.9569 74.2843C61.9569 73.1725 61.6192 72.1576 61.0629 71.4159C60.5066 70.6741 59.7216 70.1952 58.8365 70.1952C57.9513 70.1952 57.1664 70.6741 56.61 71.4159C56.0537 72.1576 55.716 73.1725 55.716 74.2843C55.716 75.3961 56.0537 76.411 56.61 77.1527C57.1664 77.8945 57.9513 78.3734 58.8365 78.3734Z" fill="#323232" stroke="#323232" stroke-width="0.429363" stroke-linecap="round"/>
<circle cx="60.0594" cy="73.3331" r="1.07341" fill="white" stroke="#323232" stroke-width="0.429363"/>
<path d="M89.7505 78.3734C90.6357 78.3734 91.4206 77.8945 91.977 77.1527C92.5333 76.411 92.871 75.3961 92.871 74.2843C92.871 73.1725 92.5333 72.1576 91.977 71.4159C91.4206 70.6741 90.6357 70.1952 89.7505 70.1952C88.8654 70.1952 88.0804 70.6741 87.5241 71.4159C86.9678 72.1576 86.63 73.1725 86.63 74.2843C86.63 75.3961 86.9678 76.411 87.5241 77.1527C88.0804 77.8945 88.8654 78.3734 89.7505 78.3734Z" fill="#323232" stroke="#323232" stroke-width="0.429363" stroke-linecap="round"/>
<circle cx="90.9735" cy="73.3331" r="0.858726" fill="white"/>
<path d="M70.5288 88.3667C71.8169 89.941 75.1659 92.1451 78.2573 88.3667" stroke="#323232" stroke-width="1.71745" stroke-linecap="round" stroke-linejoin="round"/>
<g filter="url(#filter0_f_1574_5410)">
<ellipse cx="57.0038" cy="86.2199" rx="4.07895" ry="2.3615" fill="#FC9D80"/>
</g>
<g filter="url(#filter1_f_1574_5410)">
<ellipse cx="90.9237" cy="86.2199" rx="4.07895" ry="2.3615" fill="#FC9D80"/>
</g>
<path d="M87.6339 49.8005C75.6117 66.975 64.5762 68.2993 44.3379 70.1188C48.094 43.8394 46.27 34.4817 77.1842 33.1936C101.873 34.6964 101.28 48.0551 101.873 70.1188C94.5037 66.1163 92.9339 63.4553 87.6339 49.8005Z" fill="#323232"/>
<path d="M60.3021 108.775C60.4984 108.684 60.7842 108.756 60.9274 109.004C67.8593 121.016 84.6443 120.075 89.8784 109.114C90.0209 108.816 90.3422 108.728 90.5478 108.821C102.123 114.067 109.723 119.647 114.914 126.932C120.111 134.226 122.956 143.317 124.849 155.715C124.889 155.974 124.686 156.206 124.431 156.206H25.6486C25.394 156.206 25.191 155.973 25.2317 155.714C27.2769 142.697 30.6407 133.497 36.1507 126.302C41.6612 119.105 49.3819 113.829 60.3021 108.775L59.9415 107.996L60.3021 108.775Z" fill="white" stroke="#323232" stroke-width="1.71745" stroke-linecap="round" stroke-linejoin="round"/>
<path d="M48.9917 114.849L48.9917 140.181" stroke="#323232" stroke-width="1.71745"/>
<path d="M55.4321 111.843L55.4321 137.176" stroke="#323232" stroke-width="1.71745"/>
<line x1="100.515" y1="113.99" x2="100.515" y2="140.181" stroke="#323232" stroke-width="1.71745"/>
<line x1="94.0745" y1="110.555" x2="94.0745" y2="136.746" stroke="#323232" stroke-width="1.71745"/>
<path d="M43.8392 137.176C43.8392 134.804 45.7615 132.882 48.1328 132.882H101.803C104.175 132.882 106.097 134.804 106.097 137.176V156.068H43.8392V137.176Z" fill="white" stroke="#323232" stroke-width="1.71745"/>
<circle cx="51.5484" cy="139.524" r="3.86427" fill="#323232"/>
<circle cx="97.0606" cy="139.524" r="3.86427" fill="#323232"/>
<defs>
<filter id="filter0_f_1574_5410" x="47.7724" y="78.706" width="18.4624" height="15.0276" filterUnits="userSpaceOnUse" color-interpolation-filters="sRGB">
<feFlood flood-opacity="0" result="BackgroundImageFix"/>
<feBlend mode="normal" in="SourceGraphic" in2="BackgroundImageFix" result="shape"/>
<feGaussianBlur stdDeviation="2.57618" result="effect1_foregroundBlur_1574_5410"/>
</filter>
<filter id="filter1_f_1574_5410" x="81.6924" y="78.706" width="18.4624" height="15.0276" filterUnits="userSpaceOnUse" color-interpolation-filters="sRGB">
<feFlood flood-opacity="0" result="BackgroundImageFix"/>
<feBlend mode="normal" in="SourceGraphic" in2="BackgroundImageFix" result="shape"/>
<feGaussianBlur stdDeviation="2.57618" result="effect1_foregroundBlur_1574_5410"/>
</filter>
</defs>
</svg>
