<svg width="151" height="168" viewBox="0 0 151 168" fill="none" xmlns="http://www.w3.org/2000/svg">
<rect x="60.6536" y="79.5648" width="29.2885" height="55.0149" rx="5.91529" fill="white" stroke="#323232" stroke-width="1.71745" stroke-linecap="round"/>
<path d="M61.4678 115.045V97.4597H90.9237C88.7051 106.477 75.4768 115.532 61.4678 115.045Z" fill="#7E7E7E" fill-opacity="0.45"/>
<path d="M57.2186 76.6357C57.2186 81.6544 52.6888 85.867 46.9139 85.867C41.1391 85.867 36.6092 81.6544 36.6092 76.6357C36.6092 71.617 41.1391 67.4044 46.9139 67.4044C52.6888 67.4044 57.2186 71.617 57.2186 76.6357Z" fill="white" stroke="#323232" stroke-width="1.71745"/>
<path d="M92.8556 76.6357C92.8556 81.6544 97.3854 85.867 103.16 85.867C108.935 85.867 113.465 81.6544 113.465 76.6357C113.465 71.617 108.935 67.4044 103.16 67.4044C97.3854 67.4044 92.8556 71.617 92.8556 76.6357Z" fill="white" stroke="#323232" stroke-width="1.71745"/>
<path d="M103.59 73.6659C103.59 83.3057 101.032 90.6567 96.2847 95.5958C91.5425 100.53 84.4973 103.18 75.265 103.18C66.032 103.18 58.8684 100.529 54.0109 95.5888C49.1513 90.6466 46.4847 83.2961 46.4847 73.6659C46.4847 64.0233 49.1604 53.9657 54.1184 46.3445C59.0698 38.7335 66.2394 33.6229 75.265 33.6229C84.287 33.6229 91.3413 38.7295 96.1792 46.3371C101.025 53.9568 103.59 64.0163 103.59 73.6659Z" fill="white" stroke="#323232" stroke-width="1.71745" stroke-linecap="round"/>
<path d="M75.252 73.9829C74.4058 76.9076 73.9639 78.4358 73.9639 81.4785C75.0972 82.0206 76.1808 82.1562 78.0428 82.1408" stroke="#323232" stroke-width="1.71745" stroke-linecap="round" stroke-linejoin="round"/>
<path d="M60.1245 78.3734C61.0097 78.3734 61.7947 77.8945 62.351 77.1527C62.9073 76.411 63.245 75.3961 63.245 74.2843C63.245 73.1725 62.9073 72.1576 62.351 71.4159C61.7947 70.6741 61.0097 70.1952 60.1245 70.1952C59.2394 70.1952 58.4544 70.6741 57.8981 71.4159C57.3418 72.1576 57.0041 73.1725 57.0041 74.2843C57.0041 75.3961 57.3418 76.411 57.8981 77.1527C58.4544 77.8945 59.2394 78.3734 60.1245 78.3734Z" fill="#323232" stroke="#323232" stroke-width="0.429363" stroke-linecap="round"/>
<circle cx="61.3475" cy="73.3331" r="1.07341" fill="white" stroke="#323232" stroke-width="0.429363"/>
<path d="M91.0386 78.3734C91.9237 78.3734 92.7087 77.8945 93.2651 77.1527C93.8214 76.411 94.1591 75.3961 94.1591 74.2843C94.1591 73.1725 93.8214 72.1576 93.2651 71.4159C92.7087 70.6741 91.9237 70.1952 91.0386 70.1952C90.1535 70.1952 89.3685 70.6741 88.8122 71.4159C88.2559 72.1576 87.9181 73.1725 87.9181 74.2843C87.9181 75.3961 88.2559 76.411 88.8122 77.1527C89.3685 77.8945 90.1535 78.3734 91.0386 78.3734Z" fill="#323232" stroke="#323232" stroke-width="0.429363" stroke-linecap="round"/>
<circle cx="92.2616" cy="73.3331" r="0.858726" fill="white"/>
<path d="M71.3877 88.5813C72.6758 90.1556 76.0248 92.3597 79.1162 88.5813" stroke="#323232" stroke-width="1.71745" stroke-linecap="round" stroke-linejoin="round"/>
<path d="M62.3711 93.9458C62.3711 89.3232 66.1184 85.5759 70.741 85.5759H79.763C84.3856 85.5759 88.1329 89.3232 88.1329 93.9458V93.9458C88.1329 94.6082 87.7678 95.2166 87.1834 95.5283L86.4281 95.9312C85.4809 96.4363 84.3444 96.4363 83.3973 95.9312L83.3025 95.8806C82.2962 95.3439 81.0886 95.3439 80.0823 95.8806V95.8806C79.076 96.4173 77.8684 96.4173 76.8621 95.8806V95.8806C75.8558 95.3439 74.6482 95.3439 73.6419 95.8806V95.8806C72.6356 96.4173 71.428 96.4173 70.4217 95.8806V95.8806C69.4153 95.3439 68.2077 95.3439 67.2014 95.8806L67.1067 95.9312C66.1596 96.4363 65.023 96.4363 64.0759 95.9312L63.3206 95.5283C62.7362 95.2166 62.3711 94.6082 62.3711 93.9458V93.9458Z" fill="#323232"/>
<path d="M46.0552 69.26V50.7974C46.0552 39.4151 55.2823 30.188 66.6646 30.188H83.207C94.5004 30.188 103.69 39.2769 103.815 50.5696L104.019 69.0218C102.472 63.6454 100.891 60.1918 97.604 57.0656C94.5271 54.1392 89.7908 54.6864 86.1633 56.8936C77.9263 61.9057 71.6288 62.2232 63.493 57.4137C59.4892 55.0468 54.1744 54.5944 51.342 58.2835C49.051 61.2674 47.7294 64.5939 46.0552 69.26Z" fill="#323232"/>
<g filter="url(#filter0_f_1574_5402)">
<ellipse cx="57.8626" cy="88.3666" rx="4.07895" ry="2.3615" fill="#FC9D80"/>
</g>
<g filter="url(#filter1_f_1574_5402)">
<ellipse cx="91.7821" cy="88.3666" rx="4.07895" ry="2.3615" fill="#FC9D80"/>
</g>
<path d="M60.3021 108.775C60.4984 108.684 60.7842 108.756 60.9274 109.004C67.8593 121.016 84.6443 120.075 89.8784 109.114C90.0209 108.816 90.3422 108.728 90.5478 108.821C102.123 114.067 109.723 119.647 114.914 126.932C120.111 134.226 122.956 143.317 124.849 155.715C124.889 155.974 124.686 156.206 124.431 156.206H25.6486C25.394 156.206 25.191 155.973 25.2317 155.714C27.2769 142.697 30.6407 133.497 36.1507 126.302C41.6612 119.105 49.3819 113.829 60.3021 108.775L59.9415 107.996L60.3021 108.775Z" fill="white" stroke="#323232" stroke-width="1.71745" stroke-linecap="round" stroke-linejoin="round"/>
<path d="M116.885 128.043C117.966 129.319 118.618 130.968 118.618 132.769C118.618 136.82 115.317 140.105 111.246 140.105C109.246 140.105 107.432 139.313 106.104 138.026C104.775 139.313 102.962 140.105 100.962 140.105C98.9619 140.105 97.148 139.313 95.8199 138.026C94.4917 139.313 92.6778 140.105 90.678 140.105C88.6781 140.105 86.8643 139.313 85.5361 138.026C84.208 139.313 82.3941 140.105 80.3942 140.105C78.3944 140.105 76.5805 139.313 75.2524 138.026C73.9242 139.313 72.1103 140.105 70.1105 140.105C68.1106 140.105 66.2968 139.313 64.9686 138.026C63.6405 139.313 61.8266 140.105 59.8267 140.105C57.8269 140.105 56.013 139.313 54.6849 138.026C53.3567 139.313 51.5428 140.105 49.543 140.105C47.5432 140.105 45.7293 139.313 44.4011 138.026C43.073 139.313 41.2591 140.105 39.2593 140.105C35.1875 140.105 31.8867 136.82 31.8867 132.769C31.8867 130.879 32.6048 129.156 33.7843 127.855C40.8772 119.341 48.5363 112.65 59.8267 109.191C69.8647 121.642 83.0109 121.428 91.2643 109.191C105.409 114.494 111.961 120.685 116.885 128.043Z" fill="#323232" fill-opacity="0.3"/>
<path d="M115.407 123.749C116.448 125.026 117.075 126.674 117.075 128.475C117.075 132.527 113.898 135.811 109.98 135.811C108.055 135.811 106.309 135.019 105.031 133.733C103.753 135.019 102.007 135.811 100.083 135.811C98.1579 135.811 96.4122 135.019 95.1339 133.733C93.8557 135.019 92.11 135.811 90.1853 135.811C88.2607 135.811 86.515 135.019 85.2367 133.733C83.9585 135.019 82.2128 135.811 80.2881 135.811C78.3635 135.811 76.6178 135.019 75.3396 133.733C74.0613 135.019 72.3156 135.811 70.391 135.811C68.4663 135.811 66.7206 135.019 65.4424 133.733C64.1641 135.019 62.4184 135.811 60.4938 135.811C58.5691 135.811 56.8234 135.019 55.5452 133.733C54.267 135.019 52.5213 135.811 50.5966 135.811C48.6719 135.811 46.9262 135.019 45.648 133.733C44.3698 135.019 42.6241 135.811 40.6994 135.811C36.7807 135.811 33.604 132.527 33.604 128.475C33.604 126.585 34.2951 124.862 35.4302 123.561C42.2565 115.047 50.0025 111.147 60.8686 107.688C70.7657 119.925 81.478 119.71 89.4212 107.473C103.034 112.776 110.668 116.391 115.407 123.749Z" fill="#323232"/>
<defs>
<filter id="filter0_f_1574_5402" x="48.6313" y="80.8528" width="18.4624" height="15.0276" filterUnits="userSpaceOnUse" color-interpolation-filters="sRGB">
<feFlood flood-opacity="0" result="BackgroundImageFix"/>
<feBlend mode="normal" in="SourceGraphic" in2="BackgroundImageFix" result="shape"/>
<feGaussianBlur stdDeviation="2.57618" result="effect1_foregroundBlur_1574_5402"/>
</filter>
<filter id="filter1_f_1574_5402" x="82.5508" y="80.8528" width="18.4624" height="15.0276" filterUnits="userSpaceOnUse" color-interpolation-filters="sRGB">
<feFlood flood-opacity="0" result="BackgroundImageFix"/>
<feBlend mode="normal" in="SourceGraphic" in2="BackgroundImageFix" result="shape"/>
<feGaussianBlur stdDeviation="2.57618" result="effect1_foregroundBlur_1574_5402"/>
</filter>
</defs>
</svg>
