<svg width="151" height="168" viewBox="0 0 151 168" fill="none" xmlns="http://www.w3.org/2000/svg">
<path d="M29.3101 61.961C29.3101 38.2479 48.5333 19.0247 72.2464 19.0247H77.8281C101.541 19.0247 120.764 38.2479 120.764 61.961V148.692H29.3101V61.961Z" fill="#323232"/>
<rect x="60.6536" y="79.5648" width="29.2885" height="55.0149" rx="5.91529" fill="white" stroke="#323232" stroke-width="1.71745" stroke-linecap="round"/>
<path d="M61.4678 115.045V97.4597H90.9237C88.7051 106.477 75.4768 115.532 61.4678 115.045Z" fill="#7E7E7E" fill-opacity="0.45"/>
<path d="M56.7894 79.35C56.7894 84.3687 52.2596 88.5813 46.4847 88.5813C40.7099 88.5813 36.18 84.3687 36.18 79.35C36.18 74.3313 40.7099 70.1187 46.4847 70.1187C52.2596 70.1187 56.7894 74.3313 56.7894 79.35Z" fill="white" stroke="#323232" stroke-width="1.71745"/>
<path d="M94.1437 79.35C94.1437 84.3687 98.6735 88.5813 104.448 88.5813C110.223 88.5813 114.753 84.3687 114.753 79.35C114.753 74.3313 110.223 70.1187 104.448 70.1187C98.6735 70.1187 94.1437 74.3313 94.1437 79.35Z" fill="white" stroke="#323232" stroke-width="1.71745"/>
<path d="M104.019 74.954C104.019 84.5938 101.461 91.9448 96.7139 96.8839C91.9717 101.818 84.9265 104.468 75.6942 104.468C66.4613 104.468 59.2976 101.817 54.4401 96.8769C49.5805 91.9347 46.9139 84.5842 46.9139 74.954C46.9139 65.3114 49.5896 55.2538 54.5476 47.6326C59.499 40.0216 66.6686 34.911 75.6942 34.911C84.7162 34.911 91.7705 40.0176 96.6084 47.6251C101.454 55.2449 104.019 65.3043 104.019 74.954Z" fill="white" stroke="#323232" stroke-width="1.71745" stroke-linecap="round"/>
<path d="M75.6812 74.4124C74.835 77.337 74.3931 78.8652 74.3931 81.908C75.5264 82.4501 76.61 82.5856 78.472 82.5703" stroke="#323232" stroke-width="1.71745" stroke-linecap="round" stroke-linejoin="round"/>
<path d="M60.5537 79.232C61.4389 79.232 62.2238 78.7532 62.7802 78.0114C63.3365 77.2696 63.6742 76.2548 63.6742 75.1429C63.6742 74.0311 63.3365 73.0163 62.7802 72.2745C62.2238 71.5327 61.4389 71.0539 60.5537 71.0539C59.6686 71.0539 58.8836 71.5327 58.3273 72.2745C57.771 73.0163 57.4333 74.0311 57.4333 75.1429C57.4333 76.2548 57.771 77.2696 58.3273 78.0114C58.8836 78.7532 59.6686 79.232 60.5537 79.232Z" fill="#323232" stroke="#323232" stroke-width="0.429363" stroke-linecap="round"/>
<circle cx="61.7767" cy="74.192" r="1.07341" fill="white" stroke="#323232" stroke-width="0.429363"/>
<path d="M91.4678 79.232C92.3529 79.232 93.1379 78.7532 93.6943 78.0114C94.2506 77.2696 94.5883 76.2548 94.5883 75.1429C94.5883 74.0311 94.2506 73.0163 93.6943 72.2745C93.1379 71.5327 92.3529 71.0539 91.4678 71.0539C90.5827 71.0539 89.7977 71.5327 89.2414 72.2745C88.6851 73.0163 88.3473 74.0311 88.3473 75.1429C88.3473 76.2548 88.6851 77.2696 89.2414 78.0114C89.7977 78.7532 90.5827 79.232 91.4678 79.232Z" fill="#323232" stroke="#323232" stroke-width="0.429363" stroke-linecap="round"/>
<circle cx="92.6908" cy="74.192" r="0.858726" fill="white"/>
<path d="M72.2461 89.2253C73.5342 90.7997 76.8832 93.0037 79.9746 89.2253" stroke="#323232" stroke-width="1.71745" stroke-linecap="round" stroke-linejoin="round"/>
<g filter="url(#filter0_f_1574_5418)">
<ellipse cx="58.7215" cy="87.0785" rx="4.07895" ry="2.3615" fill="#FC9D80"/>
</g>
<g filter="url(#filter1_f_1574_5418)">
<ellipse cx="92.641" cy="87.0785" rx="4.07895" ry="2.3615" fill="#FC9D80"/>
</g>
<path d="M88.922 50.6591C76.8998 67.8337 65.8643 69.1579 45.626 70.9775C49.382 44.698 47.5581 35.3403 78.4723 34.0522C103.161 35.555 102.568 48.9138 103.161 70.9775C95.7918 66.9749 94.222 64.314 88.922 50.6591Z" fill="#323232"/>
<path d="M60.3021 108.775C60.4984 108.684 60.7842 108.756 60.9274 109.004C67.8593 121.016 84.6443 120.075 89.8784 109.114C90.0209 108.816 90.3422 108.728 90.5478 108.821C102.123 114.067 109.723 119.647 114.914 126.932C120.111 134.226 122.956 143.317 124.849 155.715C124.889 155.974 124.686 156.206 124.431 156.206H25.6486C25.394 156.206 25.191 155.973 25.2317 155.714C27.2769 142.697 30.6407 133.497 36.1507 126.302C41.6612 119.105 49.3819 113.829 60.3021 108.775L59.9415 107.996L60.3021 108.775Z" fill="white" stroke="#323232" stroke-width="1.71745" stroke-linecap="round" stroke-linejoin="round"/>
<path d="M96.5059 111.767C89.8507 127.439 62.1568 127.653 55.5017 110.694" stroke="#323232" stroke-width="1.71745"/>
<path d="M89.4212 129.938H107.884V140.546C107.884 145.644 103.751 149.777 98.6525 149.777C93.5542 149.777 89.4212 145.644 89.4212 140.546V129.938Z" fill="white" stroke="#323232" stroke-width="1.71745"/>
<line x1="89.48" y1="135.101" x2="107.825" y2="135.101" stroke="#323232" stroke-width="1.71745"/>
<defs>
<filter id="filter0_f_1574_5418" x="49.4902" y="79.5647" width="18.4624" height="15.0276" filterUnits="userSpaceOnUse" color-interpolation-filters="sRGB">
<feFlood flood-opacity="0" result="BackgroundImageFix"/>
<feBlend mode="normal" in="SourceGraphic" in2="BackgroundImageFix" result="shape"/>
<feGaussianBlur stdDeviation="2.57618" result="effect1_foregroundBlur_1574_5418"/>
</filter>
<filter id="filter1_f_1574_5418" x="83.4097" y="79.5647" width="18.4624" height="15.0276" filterUnits="userSpaceOnUse" color-interpolation-filters="sRGB">
<feFlood flood-opacity="0" result="BackgroundImageFix"/>
<feBlend mode="normal" in="SourceGraphic" in2="BackgroundImageFix" result="shape"/>
<feGaussianBlur stdDeviation="2.57618" result="effect1_foregroundBlur_1574_5418"/>
</filter>
</defs>
</svg>
