<svg width="45" height="46" viewBox="0 0 45 46" fill="none" xmlns="http://www.w3.org/2000/svg">
<path d="M1.16436 30.1095C1.0587 30.1095 0.964979 30.0403 0.93479 29.9393C0.327159 27.9006 0 25.7412 0 23.5049C0 11.1054 10.0342 1.04919 22.4272 1.00988C34.7635 0.970923 44.8889 10.9668 44.9991 23.3003C45.0195 25.6099 44.6909 27.8399 44.0647 29.941C44.0348 30.041 43.9418 30.1095 43.8372 30.1095H1.16436Z" fill="#0573CD"/>
<path d="M15.4316 15.7202C16.8662 17.1546 16.8662 19.4796 15.4316 20.914C13.9969 22.3483 11.671 22.3483 10.2367 20.914L5.69086 16.3695C4.2562 14.9351 4.2562 12.6097 5.69086 11.1754C7.12552 9.74105 9.45143 9.74105 10.8857 11.1754L15.4316 15.7202ZM39.3089 11.1754C37.8746 9.7414 35.5483 9.7414 34.114 11.1754L29.5682 15.7202C28.1336 17.1546 28.1336 19.48 29.5682 20.914C31.0029 22.3483 33.3288 22.3483 34.7634 20.914L39.3089 16.3695C40.7436 14.9351 40.7436 12.6097 39.3089 11.1754ZM30.7652 2.75463C30.7652 1.23325 29.5317 0 28.01 0H16.9898C15.4681 0 14.2346 1.23325 14.2346 2.75463C14.2346 4.27566 15.4681 5.50891 16.9898 5.50891H18.8264V10.0997H26.1734V5.50891H28.01C29.5317 5.50891 30.7652 4.27566 30.7652 2.75463Z" fill="#2ED0E1"/>
<path d="M17.357 2.75463C17.357 1.23325 18.5905 0 20.1122 0H28.0101C29.5318 0 30.7653 1.23325 30.7653 2.75463C30.7653 4.27566 29.5318 5.50891 28.0101 5.50891H20.1122C18.5905 5.50891 17.357 4.27566 17.357 2.75463ZM15.8058 44.9869C15.955 45.0336 16.1151 45.0318 16.265 44.9865C18.2392 44.392 20.332 44.072 22.5 44.072C24.6626 44.072 26.7506 44.3903 28.7202 44.9823C28.8799 45.0301 29.0498 45.0322 29.2088 44.9823C36.3294 42.7611 41.9301 37.0978 44.064 29.9405C44.0745 29.6632 44.0816 29.3853 44.0816 29.1059C44.0816 17.1893 34.4191 7.52899 22.5 7.52899C10.5808 7.52899 0.918335 17.1893 0.918335 29.1059C0.918335 29.3853 0.925356 29.6632 0.935886 29.9405C3.0712 37.1027 8.67818 42.7689 15.8058 44.9869Z" fill="#84DEEA"/>
<path d="M39.7368 29.1062C39.7368 36.2372 35.4047 42.3565 29.228 44.977C27.1036 45.6417 24.8437 46.0004 22.4999 46.0004C20.156 46.0004 17.8961 45.6417 15.7717 44.977C9.59499 42.3565 5.26294 36.2372 5.26294 29.1062C5.26294 19.5884 12.9803 11.873 22.4999 11.873C32.0194 11.873 39.7368 19.5884 39.7368 29.1062Z" fill="#FDF7BD"/>
<path d="M36.2273 26.0413C36.2273 31.9286 31.454 36.7012 25.5655 36.7012C19.677 36.7012 14.9033 31.9286 14.9033 26.0413C14.9033 20.1544 19.677 15.3818 25.5651 15.3818C31.4536 15.3818 36.2273 20.1541 36.2273 26.0413Z" fill="#FFF5F5"/>
<path d="M34.8059 28.8211C34.8059 29.5819 34.1891 30.1986 33.4285 30.1986H23.3265C23.2391 30.1986 21.1224 29.6827 21.1224 28.9221V12.3951C21.1224 11.6346 21.7392 11.0176 22.4999 11.0176C23.2606 11.0176 23.8773 11.6346 23.8773 12.3951V27.4439H33.4285C34.1891 27.4439 34.8059 28.0606 34.8059 28.8211Z" fill="#FD7D43"/>
<path d="M23.8774 42.695C23.8774 43.4555 23.2606 44.0721 22.4999 44.0721C21.7392 44.0721 21.1225 43.4555 21.1225 42.695C21.1225 41.9341 21.7392 41.3175 22.4999 41.3175C23.2606 41.3175 23.8774 41.9341 23.8774 42.695ZM7.71423 27.4443C6.95355 27.4443 6.33679 28.061 6.33679 28.8215C6.33679 29.5823 6.95355 30.199 7.71423 30.199C8.47491 30.199 9.09167 29.5823 9.09167 28.8215C9.09167 28.061 8.47491 27.4443 7.71423 27.4443Z" fill="#FDB44C"/>
<path d="M26.7333 28.8214C26.7333 31.1591 24.8381 33.0539 22.4999 33.0539C20.1617 33.0539 18.2665 31.1591 18.2665 28.8214C18.2665 26.484 20.1617 24.5889 22.4999 24.5889C24.8381 24.5889 26.7333 26.4837 26.7333 28.8214Z" fill="#FDC273"/>
<path d="M26.3528 30.5751C25.6858 32.0372 24.2122 33.0539 22.4999 33.0539C20.1617 33.0539 18.2665 31.1591 18.2665 28.8214C18.2665 27.1098 19.2834 25.6362 20.7458 24.9697C20.5022 25.5039 20.3649 26.0977 20.3649 26.7231C20.3649 29.0608 22.2605 30.9559 24.5987 30.9559C25.2246 30.9559 25.8182 30.8191 26.3528 30.5751Z" fill="#FDB44C"/>
</svg>
