<svg width="45" height="46" viewBox="0 0 45 46" fill="none" xmlns="http://www.w3.org/2000/svg">
<path d="M22.7105 10.183C22.6371 10.2029 22.566 10.2224 22.5 10.241C20.9208 9.79536 17.2289 8.96777 11.6023 8.96777C9.81662 8.96777 7.9568 9.0522 6.0744 9.21884C4.07742 9.39557 2.57141 9.67242 2.57141 11.7372V34.5954C2.57141 36.7713 4.28971 38.5414 6.40182 38.5414C6.5073 38.5414 6.61411 38.5369 6.71943 38.5279C8.38456 38.386 10.0273 38.3141 11.6022 38.3141C16.0983 38.3141 19.1462 38.8983 20.5628 39.2466C21.1968 39.4025 21.8486 39.4816 22.4999 39.4816C22.57 39.4816 22.6403 39.4803 22.7104 39.4784V10.183H22.7105Z" fill="#88A8D8"/>
<path d="M37.4272 35.7892V9.10369C36.0579 9.01369 34.7078 8.96777 33.3978 8.96777C27.7712 8.96777 24.0793 9.79536 22.5001 10.241V39.4816C23.1515 39.4816 23.8032 39.4025 24.4371 39.2466C25.8538 38.8983 28.9017 38.3141 33.3978 38.3141C34.4022 38.3141 35.4342 38.3436 36.482 38.4016C37.0927 37.6758 37.4272 36.7597 37.4272 35.7892Z" fill="#7296D1"/>
<path d="M38.9256 9.21866C38.3658 9.16909 37.8085 9.12779 37.2541 9.09277V35.6135C37.2541 36.6591 36.8616 37.6415 36.149 38.3846C36.8532 38.4196 37.5645 38.4668 38.2805 38.5278C38.3857 38.5367 38.4925 38.5413 38.5979 38.5413H38.5982C39.6171 38.5413 40.5766 38.133 41.3 37.3917C42.0277 36.6458 42.4285 35.6527 42.4285 34.5953V11.737C42.4286 9.67225 40.9226 9.3954 38.9256 9.21866Z" fill="#5884C9"/>
<path d="M37.4272 8.91103V8.01429C37.4272 7.28132 37.1856 6.85726 36.9724 6.62553C29.084 6.15636 24.2805 7.3722 22.9087 7.78694C22.7753 7.82729 22.6377 7.84742 22.5 7.84742V36.6876C22.9533 36.6876 23.4066 36.633 23.8509 36.5238C25.9747 36.0016 30.5733 35.1899 37.4272 35.6473V8.91103Z" fill="#EDEAED"/>
<path d="M38.8218 6.76218C38.0199 6.6912 37.2475 6.63828 36.5023 6.59961C36.5967 6.64529 37.254 7.0068 37.254 8.20752V35.6131C37.254 35.6205 37.2535 35.6279 37.2535 35.6353C37.6952 35.6636 38.1457 35.6969 38.6063 35.7361C39.3502 35.7994 39.988 35.1941 39.988 34.4257V8.07248C39.988 7.39075 39.4816 6.82059 38.8218 6.76218Z" fill="#E0DDE0"/>
<path d="M22.7104 7.8318C22.5041 7.86291 22.2928 7.84819 22.0913 7.78732C20.6153 7.34106 15.1675 5.96702 6.17805 6.76262C5.51831 6.82095 5.01184 7.39111 5.01184 8.07284V34.4261C5.01184 35.1945 5.64963 35.7999 6.39345 35.7364C13.9019 35.0967 18.9055 35.9725 21.149 36.5241C21.6622 36.6503 22.1872 36.7031 22.7104 36.6836V7.8318Z" fill="#F7F4F7"/>
<path d="M34.8877 10.9738C34.4119 10.9614 33.9409 10.9551 33.4757 10.9551C30.2171 10.9551 27.7135 11.2593 26.0181 11.5657C25.5135 11.6569 25.1465 12.1088 25.1465 12.6363V19.5417C25.1465 20.213 25.731 20.7229 26.3744 20.6142C28.0568 20.3302 30.4383 20.0658 33.4757 20.0658C33.9408 20.0658 34.412 20.0723 34.8877 20.0847V10.9738Z" fill="#ECBE6B"/>
<path d="M36.3342 11.03C35.7768 11.0014 35.225 10.982 34.6788 10.9697V20.0804C35.193 20.0918 35.7124 20.1098 36.2367 20.1358C36.8383 20.1657 37.3416 19.6703 37.3416 19.0502V12.1159C37.3416 11.5351 36.8978 11.0589 36.3342 11.03Z" fill="#E8AE4D"/>
<path d="M25.185 25.1387C24.901 25.1387 24.6483 24.9307 24.5944 24.6328C24.5335 24.2966 24.749 23.9733 25.0755 23.9106C27.5311 23.4396 31.6361 22.9537 37.2487 23.3131C37.5803 23.3343 37.8323 23.6282 37.8116 23.9696C37.791 24.3108 37.5066 24.5713 37.174 24.5491C31.6845 24.1976 27.6846 24.6699 25.2958 25.1281C25.2587 25.1352 25.2216 25.1387 25.185 25.1387Z" fill="#808080"/>
<path d="M25.185 28.5919C24.901 28.5919 24.6483 28.3838 24.5944 28.086C24.5335 27.7498 24.749 27.4264 25.0755 27.3638C27.5311 26.8928 31.6361 26.4067 37.2487 26.7663C37.5803 26.7875 37.8323 27.0814 37.8116 27.4228C37.791 27.764 37.5066 28.0245 37.174 28.0023C31.6845 27.6508 27.6847 28.1231 25.2958 28.5813C25.2587 28.5884 25.2216 28.5919 25.185 28.5919Z" fill="#808080"/>
<path d="M25.185 32.0456C24.901 32.0456 24.6483 31.8375 24.5944 31.5397C24.5335 31.2034 24.749 30.8801 25.0755 30.8175C26.8696 30.4734 28.8523 30.2492 30.9687 30.1511C31.3 30.1344 31.5815 30.4003 31.5965 30.7418C31.6114 31.0835 31.3545 31.3729 31.0227 31.3883C28.962 31.4838 27.0353 31.7014 25.2959 32.035C25.2587 32.0421 25.2216 32.0456 25.185 32.0456Z" fill="#808080"/>
<path d="M19.815 28.2363C19.7784 28.2363 19.7413 28.2328 19.704 28.2257C17.3153 27.7675 13.3156 27.2952 7.82584 27.6467C7.49375 27.6686 7.20875 27.4085 7.1882 27.0672C7.16749 26.7259 7.41964 26.4319 7.75111 26.4107C13.3639 26.0514 17.4689 26.5373 19.9243 27.0082C20.2508 27.0708 20.4663 27.3942 20.4054 27.7304C20.3516 28.0282 20.099 28.2363 19.815 28.2363Z" fill="#808080"/>
<path d="M19.815 31.7178C19.7784 31.7178 19.7413 31.7143 19.704 31.7072C17.3153 31.2491 13.3153 30.7767 7.82584 31.1282C7.49375 31.1498 7.20875 30.8899 7.1882 30.5487C7.16749 30.2074 7.41964 29.9134 7.75111 29.8922C13.3635 29.5328 17.4687 30.0187 19.9243 30.4897C20.2508 30.5523 20.4663 30.8756 20.4054 31.2118C20.3516 31.5097 20.099 31.7178 19.815 31.7178Z" fill="#808080"/>
<path d="M19.815 24.7549C19.7784 24.7549 19.7413 24.7514 19.704 24.7443C17.3153 24.2862 13.3153 23.8138 7.82584 24.1653C7.49375 24.1875 7.20875 23.9271 7.1882 23.5858C7.16749 23.2445 7.41964 22.9505 7.75111 22.9293C13.3635 22.5699 17.4687 23.0558 19.9243 23.5268C20.2508 23.5894 20.4663 23.9128 20.4054 24.249C20.3516 24.5468 20.099 24.7549 19.815 24.7549Z" fill="#808080"/>
<path d="M19.815 21.2744C19.7784 21.2744 19.7413 21.2709 19.704 21.2638C17.3153 20.8057 13.3153 20.3332 7.82584 20.6849C7.49375 20.7074 7.20875 20.4466 7.1882 20.1053C7.16749 19.764 7.41964 19.4701 7.75111 19.4488C13.3635 19.0894 17.4687 19.5753 19.9243 20.0463C20.2508 20.109 20.4663 20.4323 20.4054 20.7685C20.3516 21.0664 20.099 21.2744 19.815 21.2744Z" fill="#808080"/>
<path d="M19.815 17.793C19.7784 17.793 19.7413 17.7895 19.704 17.7824C17.3153 17.3242 13.3155 16.8519 7.82584 17.2034C7.49375 17.2252 7.20875 16.9651 7.1882 16.6239C7.16749 16.2826 7.41964 15.9886 7.75111 15.9674C13.3636 15.6079 17.4688 16.094 19.9243 16.5649C20.2508 16.6275 20.4663 16.9509 20.4054 17.2871C20.3516 17.5849 20.099 17.7929 19.815 17.793Z" fill="#808080"/>
<path d="M19.8149 14.3113C19.7783 14.3113 19.7413 14.3078 19.704 14.3007C17.9073 13.9561 15.913 13.7355 13.7766 13.6452C13.4447 13.6312 13.1867 13.3428 13.2003 13.0011C13.214 12.6592 13.4964 12.3937 13.826 12.4078C16.0195 12.5005 18.0713 12.7277 19.9244 13.0832C20.2509 13.1458 20.4663 13.4691 20.4055 13.8054C20.3516 14.1033 20.0989 14.3113 19.8149 14.3113Z" fill="#808080"/>
<path d="M29.7201 13.6618V17.2925C29.7201 17.6966 30.1624 17.933 30.4835 17.7005L32.9899 15.8852C33.2642 15.6865 33.2642 15.2679 32.9899 15.0692L30.4835 13.2538C30.1624 13.0213 29.7201 13.2577 29.7201 13.6618Z" fill="white"/>
</svg>
