<svg width="51" height="50" viewBox="0 0 51 50" fill="none" xmlns="http://www.w3.org/2000/svg">
<path d="M42.6875 0H8.3125C3.99778 0 0.5 3.49778 0.5 7.8125V42.1875C0.5 46.5022 3.99778 50 8.3125 50H42.6875C47.0022 50 50.5 46.5022 50.5 42.1875V7.8125C50.5 3.49778 47.0022 0 42.6875 0Z" fill="#1DA1F2"/>
<path d="M38 17.1875C37.0625 17.6562 36.125 17.8125 35.0312 17.9688C36.125 17.3438 36.9062 16.4062 37.2188 15.1562C36.2812 15.7812 35.1875 16.0938 33.9375 16.4062C33 15.4687 31.5938 14.8438 30.1875 14.8438C26.9062 14.8438 24.4062 17.9688 25.1875 21.0938C20.9688 20.9375 17.2188 18.9063 14.5625 15.7813C13.1563 18.125 13.9375 21.0938 16.125 22.6562C15.3438 22.6562 14.5625 22.3438 13.7812 22.0313C13.7812 24.375 15.5 26.5625 17.8438 27.1875C17.0625 27.3437 16.2813 27.5 15.5 27.3438C16.125 29.375 18 30.9375 20.3437 30.9375C18.4687 32.3437 15.6562 33.125 13 32.8125C15.3438 34.2188 18 35.1562 20.8125 35.1562C30.3438 35.1562 35.6562 27.1875 35.3437 19.8437C36.4375 19.2187 37.375 18.2812 38 17.1875Z" fill="white"/>
</svg>
