<svg width="51" height="50" viewBox="0 0 51 50" fill="none" xmlns="http://www.w3.org/2000/svg">
<path d="M42.6875 0H8.3125C3.99778 0 0.5 3.49778 0.5 7.8125V42.1875C0.5 46.5022 3.99778 50 8.3125 50H42.6875C47.0022 50 50.5 46.5022 50.5 42.1875V7.8125C50.5 3.49778 47.0022 0 42.6875 0Z" fill="#FF0000"/>
<path d="M37.375 18.9063C37.0625 17.8125 36.2813 17.0313 35.1875 16.7188C33.3125 16.25 25.3437 16.25 25.3437 16.25C25.3437 16.25 17.5313 16.25 15.5 16.7188C14.4063 17.0313 13.625 17.8125 13.3125 18.9063C13 20.9375 13 25 13 25C13 25 13 29.0625 13.4688 31.0938C13.7813 32.1875 14.5625 32.9688 15.6562 33.2812C17.5312 33.75 25.5 33.75 25.5 33.75C25.5 33.75 33.3125 33.75 35.3437 33.2812C36.4375 32.9688 37.2188 32.1875 37.5313 31.0938C38 29.0625 38 25 38 25C38 25 38 20.9375 37.375 18.9063ZM23 28.75V21.25L29.5625 25L23 28.75Z" fill="white"/>
</svg>
